<?xml version="1.0" encoding="UTF-8"?> <svg xmlns="http://www.w3.org/2000/svg" width="172" height="83" viewBox="0 0 172 83" fill="none"><g clip-path="url(#clip0_2523_5458)"><path d="M116.521 17.4565C116.521 23.9768 112.885 28.3631 107.361 32.1567C107.361 32.1567 103.222 35.1204 100.964 36.5431L118.767 56.3658C119.271 55.7286 125.004 49.3762 125.004 49.3762H169.094V31.6776H125.004V19.0617L171.995 19.0333L172 0.00575379L105.549 0.0105435C112.493 3.31514 116.52 9.68237 116.52 17.4573L116.521 17.4565ZM132.79 62.3386C129.755 65.5593 129.642 65.9495 128.543 67.1054L142.426 82.5813L171.925 82.5765L171.93 62.3488L132.79 62.3386ZM42.122 47.4358L50.9915 22.9897L59.6463 47.4358H42.122ZM81.0585 0.00560865L35.6602 0.000818926L0 82.5764L30.1692 82.5859L35.998 67.2632L64.2313 67.287C63.2178 64.4566 62.6869 61.2804 62.6869 57.7585C62.6869 46.9753 70.9772 39.9808 78.7473 35.1202C75.117 31.208 69.8404 25.2806 69.8404 17.2191C69.8404 9.48367 73.8782 3.25968 81.0585 0.0044475V0.00560865ZM95.462 24.6878C98.347 22.791 100.599 20.5385 100.599 17.5747C100.599 13.6626 97.843 10.6987 93.1992 10.6987C88.3033 10.6987 85.7989 13.6626 85.7989 17.5747C85.7989 20.6571 88.5499 23.6209 91.6869 27.0588C92.947 26.3475 95.462 24.6878 95.462 24.6878V24.6878ZM79.3801 58.1042C79.3801 65.1037 86.3996 71.4314 93.9231 71.4314C99.1943 71.4314 103.087 69.8952 107.227 66.4572L88.4158 45.1823C83.0104 48.7388 79.3801 52.0581 79.3801 58.1042" fill="#0D6AB3"></path></g><defs><clipPath id="clip0_2523_5458"><rect width="172" height="82.5845" fill="white"></rect></clipPath></defs></svg> 