<?xml version="1.0" encoding="UTF-8"?> <svg xmlns="http://www.w3.org/2000/svg" width="524" height="101" viewBox="0 0 524 101" fill="none"><g clip-path="url(#clip0_228_1345)"><path d="M18.2266 57.0662V84.1135H24.1499C33.4135 84.1135 35.9966 79.2695 35.9966 70.6663C35.9966 62.2275 33.4135 57.069 24.1499 57.069L18.2266 57.0662ZM18.2266 42.2139H23.5346C32.6451 42.2139 34.7745 37.2084 34.7745 29.7043C34.7745 22.2003 32.6536 16.7273 23.5346 16.7273H18.2266V42.2139ZM25.9732 99.7505H0V1.24902H25.5195C45.4162 1.24902 52.2497 11.8833 52.2497 27.3588C52.2497 39.3981 45.7281 47.3724 36.3029 49.0919C47.6959 51.2816 54.0758 59.4117 54.0758 72.5445C54.0758 89.7423 45.7196 99.7392 25.976 99.7392" fill="black"></path><path d="M81.0952 63.6325H94.7652L88.3938 28.2993H87.7842L81.0952 63.6325ZM99.784 1.24902L120.137 99.7505H101.304L97.354 78.4848H78.3562L74.4091 99.7505H57.1069L77.4573 1.24902H99.784Z" fill="black"></path><path d="M142.098 66.6044C142.098 78.0176 143.615 85.2101 150.755 85.2101C158.045 85.2101 159.261 78.0176 159.261 66.6044V57.6924H177.641V61.7546C177.641 85.363 171.119 100.997 151.211 100.997C130.555 100.997 122.658 85.5188 122.658 57.531V43.4634C122.658 15.4783 130.555 0 151.211 0C171.108 0 177.641 15.6341 177.641 39.2425V43.3076H159.261V34.3956C159.261 22.9824 158.045 15.7899 150.755 15.7899C143.615 15.7899 142.098 22.9824 142.098 34.3956V66.6044Z" fill="black"></path><path d="M223.46 99.7506L211.46 61.916L205.843 76.4538V99.7506H187.01V1.25195H205.843V48.1543L223.46 1.25195H242.903L225.586 44.2451L243.206 99.7506H223.46Z" fill="black"></path><path d="M261.433 65.8225V71.7714C261.433 80.213 264.773 85.5302 271.153 85.5302C276.923 85.5302 279.81 81.6209 279.81 75.0489C279.81 68.0151 276.166 65.5137 270.393 61.6045L262.496 56.4432C253.23 50.4943 245.029 43.7806 245.029 27.3618C245.029 10.943 254.911 0 270.237 0C286.793 0 295.6 10.317 295.6 29.2371V34.8659H279.044V29.0813C279.044 20.1694 276.311 15.484 270.237 15.484C264.92 15.484 262.337 19.7048 262.337 26.1154C262.337 32.6818 265.224 35.965 270.084 39.0924L278.729 44.7155C289.816 51.4377 297.259 58.3128 297.259 73.4824C297.259 91.1504 286.932 101 271.136 101C255.036 101 244.709 91.1504 244.709 71.4513V65.8225H261.433Z" fill="black"></path><path d="M317.275 99.7506V17.1977H299.352V1.25195H354.485V17.1977H336.109V99.7506H317.275Z" fill="black"></path><path d="M372.559 63.6325H386.226L379.846 28.2993H379.239L372.559 63.6325ZM391.239 1.24902L411.592 99.7505H392.756L388.809 78.4848H369.811L365.861 99.7505H348.548L368.912 1.24902H391.239Z" fill="black"></path><path d="M456.416 99.7507L454.896 90.3657C452.769 97.5582 446.086 100.997 438.796 100.997C420.873 100.997 413.433 85.5188 413.433 57.531V43.4634C413.433 15.4783 421.639 0 441.833 0C461.883 0 468.869 14.0704 468.869 37.676V39.8657H450.493V34.3956C450.493 22.9824 449.123 15.7899 441.833 15.7899C434.543 15.7899 432.873 22.9824 432.873 34.3956V66.1228C432.873 77.6947 434.999 84.8843 442.136 84.8843C449.273 84.8843 451.252 77.6947 451.252 66.1228V64.2475H443.353V49.5737H469.02V99.7507H456.416Z" fill="black"></path><path d="M479.196 1.25195V99.7506H524V83.802H497.573V57.3779H517.166V41.4321H497.573V17.1977H523.697V1.25195H479.196Z" fill="black"></path></g><defs><clipPath id="clip0_228_1345"><rect width="524" height="101" fill="white"></rect></clipPath></defs></svg> 