<?xml version="1.0" encoding="UTF-8"?> <svg xmlns="http://www.w3.org/2000/svg" width="480" height="271" viewBox="0 0 480 271" fill="none"><g clip-path="url(#clip0_2512_630)"><path d="M68.5713 103.543H93.707C98.4948 103.543 102.086 104.74 104.746 106.735C107.671 109.13 109.267 112.588 109.267 116.845C109.267 121.766 107.272 124.826 103.283 126.688V126.954C108.602 128.683 111.661 133.472 111.661 139.192C111.661 144.645 109.533 148.902 106.075 151.562C103.15 153.69 99.4258 154.622 94.372 154.622H68.5713V103.543ZM91.1802 123.496C93.84 123.496 95.8349 122.032 95.8349 118.973C95.8349 116.047 93.84 114.583 91.0472 114.583H82.4026V123.363H91.1802V123.496ZM92.3771 143.315C95.436 143.315 97.6968 141.453 97.6968 138.127C97.6968 134.536 95.303 132.94 92.3771 132.94H82.5356V143.448H92.3771V143.315Z" fill="#13191E"></path><path d="M113.922 103.543H127.088V154.755H113.922V103.543Z" fill="#13191E"></path><path d="M129.748 136.531C129.748 124.959 137.196 117.244 148.766 117.244C160.337 117.244 167.651 125.092 167.651 136.531C167.651 148.104 160.337 155.819 148.766 155.819C137.196 155.819 129.748 148.104 129.748 136.531ZM154.485 136.531C154.485 130.146 152.49 126.156 148.5 126.156C144.51 126.156 142.648 130.146 142.648 136.531C142.648 142.916 144.51 147.04 148.5 147.04C152.49 146.906 154.485 142.916 154.485 136.531Z" fill="#13191E"></path><path d="M169.114 136.531C169.114 124.959 176.562 117.244 188.132 117.244C199.703 117.244 206.884 124.959 206.884 136.531C206.884 148.104 199.57 155.819 187.999 155.819C176.562 155.819 169.114 148.104 169.114 136.531ZM193.851 136.531C193.851 130.146 191.856 126.156 187.866 126.156C183.877 126.156 182.015 130.146 182.015 136.531C182.015 142.916 183.877 147.04 187.866 147.04C191.856 146.906 193.851 142.916 193.851 136.531Z" fill="#13191E"></path><path d="M209.544 118.175H221.779V123.629H222.045C224.439 119.372 227.764 117.111 233.084 117.111C237.739 117.111 241.196 119.372 242.925 123.363H243.191C246.117 118.574 249.974 117.111 254.496 117.111C263.007 117.111 266.598 123.363 266.598 131.743V154.622H253.831V134.004C253.831 130.28 252.634 127.885 249.442 127.885C246.25 127.885 244.654 130.812 244.654 134.802V154.622H231.887V134.004C231.887 130.28 230.69 127.885 227.498 127.885C224.306 127.885 222.71 130.812 222.71 134.802V154.622H209.544C209.544 154.622 209.544 118.175 209.544 118.175Z" fill="#13191E"></path><path d="M282.691 149.833H282.558V154.622H270.322V103.543H283.09V121.899H283.356C285.749 118.707 289.074 116.978 293.729 116.978C302.906 116.978 308.225 125.225 308.225 136.265C308.225 148.636 302.507 155.819 292.931 155.819C288.941 155.819 284.819 153.956 282.691 149.833ZM295.059 136.132C295.059 130.279 292.931 126.422 289.074 126.422C285.085 126.422 282.691 130.279 282.691 136.132C282.691 141.985 285.218 145.842 289.074 145.842C292.931 145.842 295.059 142.118 295.059 136.132Z" fill="#13191E"></path><path d="M309.688 136.398C309.688 124.959 317.269 117.111 328.175 117.111C333.627 117.111 337.75 118.84 340.942 121.899C345.198 126.023 347.06 132.408 346.927 139.857H322.456C322.988 144.379 325.116 146.774 328.973 146.774C331.233 146.774 333.228 145.71 334.026 143.315H346.395C344.267 151.695 337.75 155.819 328.574 155.819C317.269 155.686 309.688 147.971 309.688 136.398ZM322.456 132.541H334.159C333.893 128.151 331.499 125.89 328.441 125.89C324.85 125.757 322.855 128.284 322.456 132.541Z" fill="#13191E"></path><path d="M361.423 124.427H361.689C364.349 119.373 367.807 117.377 372.195 117.377C373.259 117.377 373.924 117.51 374.323 117.776V128.95H374.057C366.477 127.62 362.088 131.211 362.088 139.458V154.755H349.188V118.176H361.423V124.427Z" fill="#13191E"></path><path d="M375.653 154.754H388.022C388.554 156.351 390.15 157.814 393.208 157.814C397.331 157.814 398.794 155.287 398.794 151.429V148.769H398.528C396.533 151.163 393.74 152.892 389.751 152.892C381.904 152.892 374.988 147.039 374.988 135.6C374.988 125.092 380.574 116.978 389.086 116.978C394.006 116.978 396.932 118.973 398.927 122.032H399.193V118.042H411.428V149.7C411.428 155.553 409.434 160.075 406.375 162.735C403.183 165.529 398.661 166.726 393.474 166.726C383.633 166.859 376.85 162.868 375.653 154.754ZM399.326 135.068C399.326 130.545 397.198 126.821 393.474 126.821C389.884 126.821 387.623 130.013 387.623 135.068C387.623 139.99 389.884 143.448 393.474 143.448C397.065 143.448 399.326 139.857 399.326 135.068Z" fill="#13191E"></path></g><defs><clipPath id="clip0_2512_630"><rect width="342.857" height="63.3162" fill="white" transform="translate(68.5713 103.543)"></rect></clipPath></defs></svg> 