<?xml version="1.0" encoding="UTF-8"?> <svg xmlns="http://www.w3.org/2000/svg" width="480" height="271" viewBox="0 0 480 271" fill="none"><g clip-path="url(#clip0_2512_688)"><path d="M246.018 115.915L245.289 113.727L246.018 109.897L245.653 109.714L235.623 118.104V118.286L246.018 115.915Z" fill="#13191E"></path><path d="M92.8266 155.674C91.925 156.599 90.8472 157.333 89.6569 157.835C88.4667 158.336 87.188 158.593 85.8965 158.592C77.8722 158.592 75.8661 151.479 75.8661 143.09C75.8661 134.7 77.6898 127.587 85.7141 127.587C86.9563 127.557 88.1896 127.803 89.325 128.308C90.4604 128.812 91.4695 129.563 92.2795 130.505L96.8388 137.436H97.2035V127.04H96.8388L92.6442 129.229C90.7078 127.587 88.2531 126.682 85.7141 126.675C77.8722 126.675 68.5713 132.694 68.5713 143.272C68.5713 153.85 77.6898 159.869 85.8965 159.869C88.5754 159.85 91.1606 158.88 93.1914 157.133L97.2035 159.504H97.5682V148.561H97.2035L92.8266 155.674Z" fill="#13191E"></path><path d="M122.736 126.494C115.077 126.494 105.958 133.059 105.958 143.09C105.958 153.121 115.077 159.687 122.736 159.687C130.396 159.687 139.514 153.121 139.514 143.09C139.514 133.059 130.578 126.494 122.736 126.494ZM122.736 158.593C115.077 158.593 113.07 151.845 113.07 143.09C113.07 134.336 115.077 127.588 122.736 127.588C130.396 127.588 132.402 134.336 132.402 143.09C132.402 151.845 130.578 158.593 122.736 158.593Z" fill="#13191E"></path><path d="M168.511 127.953H172.523V148.015H172.341L158.116 127.041H145.35V127.953H149.179V158.228H145.35V159.14H154.468V158.228H150.456V127.953L173.435 159.687H173.799V127.953H177.629V127.041H168.511V127.953Z" fill="#13191E"></path><path d="M198.967 127.041H184.56V127.953H188.754V158.228H184.56V159.14H198.967C206.079 159.14 217.933 156.04 217.933 142.908C217.933 129.777 206.079 127.041 198.967 127.041ZM198.602 158.228H195.137V127.953H198.602C206.991 127.953 210.821 133.972 210.821 143.091C210.821 152.21 206.991 158.228 198.602 158.228Z" fill="#13191E"></path><path d="M246.566 158.228H234.53V142.361H240.548C242.266 144.193 243.681 146.286 244.742 148.562H245.107V135.248H244.742C243.681 137.524 242.266 139.617 240.548 141.449H234.53V127.953H245.29C248.39 129.959 251.125 135.613 251.125 135.613H251.49V127.041H223.952V127.953H228.147V158.228H223.952V159.14H252.402V148.38H252.037C250.719 151.919 248.875 155.239 246.566 158.228Z" fill="#13191E"></path><path d="M295.805 127.953H299.817V148.015H299.635L285.41 127.041H272.462V127.953H276.474V158.228H272.462V159.14H281.58V158.228H277.751V127.953L300.729 159.687H300.912V127.953H304.924V127.041H295.805V127.953Z" fill="#13191E"></path><path d="M325.533 125.947H325.168L311.49 158.046H307.66V158.958H316.232V158.046H312.584L317.508 146.556H327.903L333.192 158.046H328.998V158.958H343.952V158.046H340.122L325.533 125.947ZM318.055 145.826L322.797 134.701L327.721 145.826H318.055V145.826Z" fill="#13191E"></path><path d="M366.565 140.355L360.182 138.167C357.082 137.072 354.529 135.613 354.529 132.513C354.529 129.412 357.264 127.406 361.459 127.406C362.505 127.319 363.558 127.47 364.538 127.85C365.517 128.229 366.397 128.825 367.112 129.595L371.672 136.525H372.036V126.312H371.672L367.477 128.501C365.81 127.053 363.666 126.273 361.459 126.312C360.159 126.238 358.859 126.427 357.634 126.869C356.41 127.31 355.287 127.994 354.333 128.879C353.38 129.765 352.615 130.834 352.084 132.023C351.554 133.211 351.269 134.494 351.246 135.796C351.246 140.355 354.529 142.726 357.994 144.003L364.377 146.374C367.842 147.651 370.03 149.11 370.03 152.393C370.03 155.675 367.842 158.411 362.371 158.411C359.713 158.282 357.163 157.325 355.076 155.675L350.334 147.833H349.787V158.958H350.334L354.346 156.77C356.557 158.448 359.232 159.403 362.006 159.505C368.936 159.505 373.495 154.581 373.495 149.11C373.495 143.638 370.577 141.632 366.565 140.355Z" fill="#13191E"></path><path d="M380.972 127.041V137.072H381.336C382.895 133.842 384.79 130.786 386.99 127.953H392.643V158.228H387.537V159.14H404.133V158.228H399.026V127.953H404.68C406.879 130.786 408.774 133.842 410.333 137.072H410.698V127.223H380.972V127.041Z" fill="#13191E"></path></g><defs><clipPath id="clip0_2512_688"><rect width="342.857" height="51.0668" fill="white" transform="translate(68.5713 109.714)"></rect></clipPath></defs></svg> 