<?xml version="1.0" encoding="UTF-8"?> <svg xmlns="http://www.w3.org/2000/svg" width="151" height="74" viewBox="0 0 151 74" fill="none"><path d="M2.50186 21.08C1.11518 16.9253 3.33202 12.4129 7.50612 11.0858C54.278 -3.78433 95.5647 -3.64886 143.65 11.2155C147.762 12.4868 150.036 16.8534 148.818 20.9822L135.319 66.7477C134.119 70.8175 129.919 73.2314 125.785 72.278C81.2321 62.0055 71.4757 62.0181 27.3172 72.316C23.2834 73.2567 19.1597 70.9891 17.8484 67.0603L2.50186 21.08Z" fill="#94D4DE"></path><line x1="43.6533" y1="33.0912" x2="43.6533" y2="43.1753" stroke="black" stroke-width="2" stroke-linecap="round"></line><line x1="49.9551" y1="26.0421" x2="49.9551" y2="43.1754" stroke="black" stroke-width="2" stroke-linecap="round"></line><line x1="56.2568" y1="33.0912" x2="56.2568" y2="43.1753" stroke="black" stroke-width="2" stroke-linecap="round"></line><line x1="62.5585" y1="31.0771" x2="62.5585" y2="43.1753" stroke="black" stroke-width="2" stroke-linecap="round"></line><rect x="30" y="20" width="45.2625" height="30.2244" rx="3" stroke="black" stroke-width="2"></rect><line x1="85.072" y1="29" x2="123.072" y2="29" stroke="black" stroke-width="2" stroke-linecap="round"></line><line x1="85.072" y1="41" x2="123.072" y2="41" stroke="black" stroke-width="2" stroke-linecap="round"></line><rect x="95.072" y="24" width="6" height="10" rx="3" fill="#94D4DE" stroke="black" stroke-width="2"></rect><rect x="107.072" y="36" width="6" height="10" rx="3" fill="#94D4DE" stroke="black" stroke-width="2"></rect></svg> 