<?xml version="1.0" encoding="UTF-8"?> <svg xmlns="http://www.w3.org/2000/svg" width="480" height="271" viewBox="0 0 480 271" fill="none"><g clip-path="url(#clip0_2515_2686)"><path d="M376.19 135.057C376.19 146.817 366.802 156.226 354.958 156.373C343.402 156.373 333.726 146.67 333.726 134.763C333.726 123.15 343.692 113.153 355.247 113.3C366.947 113.3 376.19 123.003 376.19 135.057ZM369.402 134.91C369.402 126.09 363.625 120.063 355.103 120.063C346.87 120.063 340.514 126.531 340.514 134.91C340.514 142.995 347.158 149.904 354.814 149.904C363.046 149.904 369.402 143.289 369.402 134.91Z" fill="#13191E"></path><path d="M219.764 133.589C220.631 133.589 221.497 133.589 222.22 133.589C227.419 133.589 228.43 134.618 227.997 140.057C227.13 150.053 217.02 157.845 206.909 156.228C195.354 154.317 188.132 145.055 188.854 132.707C189.432 122.564 198.387 113.891 209.075 113.449C214.564 113.155 219.475 114.92 223.664 118.742C225.541 120.506 225.975 122.858 224.531 124.181C222.652 125.945 221.064 125.063 219.331 123.593C214.275 119.33 207.775 118.595 202.575 121.829C196.943 125.357 194.343 131.678 195.931 138.734C197.087 144.32 202.721 149.171 208.643 149.76C213.264 150.347 218.753 146.819 220.486 142.556C221.208 140.792 220.919 139.91 218.753 139.91C217.308 139.91 216.008 139.91 214.564 139.91C212.687 139.91 211.242 138.881 211.242 136.823C211.242 134.765 212.542 133.736 214.419 133.589C216.298 133.442 218.031 133.589 219.764 133.589Z" fill="#13191E"></path><path d="M241.431 129.912C241.719 133.734 240.997 138.291 241.863 142.554C242.731 147.258 245.908 149.904 250.097 149.757C254.285 149.61 257.174 146.964 258.042 142.554C258.763 138.879 258.33 135.057 258.474 131.235C258.619 126.825 258.474 122.415 258.474 118.005C258.474 115.946 259.341 114.477 261.507 114.33C263.818 114.035 264.83 115.653 265.119 117.711C265.119 118.152 265.263 118.446 265.263 118.887C265.119 126.972 265.696 135.057 264.83 143.142C264.107 150.492 257.751 156.226 250.097 156.373C242.731 156.52 235.942 151.081 235.075 143.877C234.064 135.204 234.642 126.531 234.642 117.858C234.642 115.8 235.797 114.183 238.108 114.33C240.42 114.477 241.286 115.946 241.286 118.152C241.431 121.827 241.431 125.649 241.431 129.912Z" fill="#13191E"></path><path d="M300.361 145.348C300.361 154.021 288.517 160.342 278.55 154.756C276.095 153.286 274.072 151.522 272.773 148.729C271.761 146.524 272.34 144.172 274.072 143.29C276.239 142.408 277.829 143.143 278.984 145.201C281.005 148.876 283.895 150.787 288.228 149.905C290.828 149.464 292.706 147.994 293.283 145.348C293.861 142.555 293.138 140.35 290.683 138.733C287.649 136.822 284.183 135.793 281.005 134.323C275.517 131.824 273.35 128.443 273.784 122.856C273.928 120.21 275.084 118.152 277.106 116.535C282.161 112.272 290.539 112.125 295.739 116.094C297.328 117.417 298.915 118.887 297.471 121.092C296.027 123.297 294.005 123.003 292.127 121.533C289.816 119.769 287.216 119.328 284.473 120.21C282.595 120.798 281.151 121.974 280.861 124.032C280.572 126.09 281.872 127.266 283.462 128.001C286.206 129.177 289.095 130.059 291.694 131.383C296.75 133.735 300.505 137.116 300.361 145.348Z" fill="#13191E"></path><path d="M315.237 136.969C315.237 132.558 315.093 128.148 315.237 123.591C315.381 121.239 314.371 120.357 312.204 120.504C310.327 120.651 308.304 120.651 306.426 120.357C304.404 120.21 302.96 119.181 303.105 116.976C303.249 114.918 304.694 114.036 306.571 114.036C314.804 114.036 322.892 114.036 331.125 114.036C333.003 114.036 334.302 115.065 334.447 117.123C334.447 119.181 333.147 120.21 331.27 120.357C329.681 120.504 328.093 120.504 326.503 120.504C322.17 120.504 322.17 120.504 322.17 124.767C322.17 132.853 322.17 140.938 322.17 149.17C322.17 150.052 322.17 150.934 322.17 151.669C322.026 153.727 321.014 155.197 318.848 155.197C316.682 155.197 315.672 153.874 315.381 151.816C315.237 149.611 315.237 147.259 315.237 145.054C315.237 142.408 315.237 139.762 315.237 136.969Z" fill="#13191E"></path><path d="M140.178 170.926C135.122 171.22 130.212 170.926 125.445 169.015C113.457 164.164 106.235 155.197 104.357 142.113C103.057 133.293 105.368 125.355 110.279 118.005C112.446 114.624 114.468 111.095 117.357 108.302C123.278 102.716 130.212 99.4822 138.3 99.0411C151.299 98.4531 161.121 104.186 168.343 115.065C170.654 118.593 173.254 121.974 174.554 126.09C178.598 138.438 176.72 149.758 168.343 159.607C161.843 167.251 153.466 171.073 143.355 170.926C142.344 170.926 141.189 170.926 140.178 170.926ZM140.033 162.841C144.366 162.841 147.977 162.253 151.733 160.342C158.521 157.108 164.299 152.845 165.888 144.759C166.465 141.672 166.899 138.585 166.61 135.498C165.31 122.562 158.666 113.742 146.822 109.037C143.789 107.861 140.611 107.126 137.289 107.861C121.256 111.683 111.146 127.266 114.323 143.73C115.046 147.111 115.768 150.493 118.079 152.992C124.001 159.607 131.367 162.694 140.033 162.841ZM173.11 132.264C171.954 146.376 165.165 157.108 155.055 165.781C167.043 161.077 175.854 147.258 173.11 132.264ZM125.3 165.634C116.057 157.549 108.546 147.846 107.101 134.028C105.368 151.375 116.779 162.841 125.3 165.634ZM110.857 138.732C110.712 126.237 115.912 116.682 126.023 109.331C113.601 114.183 108.112 123.444 110.857 138.732ZM169.643 136.38C171.376 121.092 164.877 113.153 154.477 109.478C163.865 116.094 168.921 124.914 169.643 136.38ZM124.723 106.391C134.833 103.304 144.655 103.598 154.621 105.95C146.1 100.364 133.1 100.511 124.723 106.391ZM129.056 164.017C135.411 169.015 145.666 168.721 152.744 163.282C144.655 166.369 137 166.663 129.056 164.017Z" fill="#13191E"></path><path d="M147.979 139.467C146.534 139.467 145.523 139.467 144.512 139.467C143.79 139.467 143.068 139.467 142.346 139.173C141.046 138.879 140.323 137.85 140.323 136.527C140.323 135.057 141.479 134.028 142.923 134.028C146.39 134.028 149.856 134.028 153.178 134.028C154.912 134.028 155.923 135.057 155.923 136.968C155.923 140.496 155.923 144.024 155.923 147.552C155.923 149.316 154.912 150.345 153.323 150.492C151.878 150.639 150.723 149.463 150.434 147.846C150.29 147.258 150.29 146.523 150.29 145.935C149.712 145.641 149.567 146.082 149.279 146.376C141.479 155.49 128.479 150.345 124.435 141.378C120.969 133.587 123.858 124.473 131.224 119.915C138.301 115.652 147.69 117.71 152.601 124.62C153.034 125.355 153.612 126.09 153.612 126.972C153.612 128.295 152.89 129.177 151.734 129.618C150.434 130.059 149.423 129.471 148.701 128.442C147.69 127.119 146.679 125.943 145.234 124.914C141.479 122.562 136.279 122.709 132.813 125.502C128.913 128.736 127.468 133.44 129.057 137.997C130.646 142.554 134.835 145.641 139.457 145.494C141.479 145.494 143.068 144.612 144.368 143.289C145.668 142.26 146.823 141.231 147.979 139.467Z" fill="#13191E"></path></g><defs><clipPath id="clip0_2515_2686"><rect width="273" height="72.1304" fill="white" transform="translate(104 99)"></rect></clipPath></defs></svg> 