<?xml version="1.0" encoding="UTF-8"?> <svg xmlns="http://www.w3.org/2000/svg" width="480" height="271" viewBox="0 0 480 271" fill="none"><g clip-path="url(#clip0_2512_790)"><path d="M285.775 114.576H271.044C270.263 114.576 269.648 115.167 269.648 115.918V151.99C269.648 152.741 270.263 153.332 271.044 153.332H274.949C275.73 153.332 276.346 152.741 276.346 151.99V136.799C276.346 136.531 276.624 136.262 276.903 136.262H283.041C283.823 136.262 284.437 135.672 284.437 134.921V132.075C284.437 131.324 283.823 130.733 283.041 130.733H276.903C276.624 130.733 276.346 130.465 276.346 130.196V120.695C276.346 120.427 276.624 120.159 276.903 120.159H285.775C286.557 120.159 287.171 119.568 287.171 118.816V115.918C287.171 115.167 286.557 114.576 285.775 114.576Z" fill="#13191E"></path><path d="M299.658 132.075H297.593C297.313 132.075 297.035 131.807 297.035 131.538V120.48C297.035 120.212 297.313 119.944 297.593 119.944H299.658C302.672 119.944 303.564 121.286 303.564 126.01C303.564 130.733 302.672 132.075 299.658 132.075ZM305.461 136.853C305.349 136.531 305.517 136.208 305.796 136.101C308.866 134.544 310.148 132.236 310.148 126.17C310.148 119.568 308.586 114.576 300.775 114.576H291.734C290.953 114.576 290.339 115.167 290.339 115.918V151.99C290.339 152.741 290.953 153.332 291.734 153.332H295.64C296.422 153.332 297.035 152.741 297.035 151.99V137.765C297.035 137.497 297.313 137.229 297.593 137.229H298.877C299.211 137.229 299.491 137.443 299.603 137.765L303.62 152.044C303.843 152.795 304.569 153.332 305.406 153.332H309.144C309.87 153.332 310.316 152.688 310.148 152.044L305.461 136.853Z" fill="#13191E"></path><path d="M329.716 147.589H320.62C320.343 147.589 320.062 147.32 320.062 147.052V136.531C320.062 136.262 320.343 135.994 320.62 135.994H326.48C327.261 135.994 327.875 135.404 327.875 134.652V131.915C327.875 131.163 327.261 130.572 326.48 130.572H320.62C320.343 130.572 320.062 130.304 320.062 130.035V120.749C320.062 120.48 320.343 120.212 320.62 120.212H329.269C330.051 120.212 330.665 119.622 330.665 118.87V115.918C330.665 115.167 330.051 114.576 329.269 114.576H314.817C314.035 114.576 313.422 115.167 313.422 115.918V151.99C313.422 152.741 314.035 153.332 314.817 153.332H329.716C330.497 153.332 331.111 152.741 331.111 151.99V148.93C331.111 148.178 330.497 147.589 329.716 147.589Z" fill="#13191E"></path><path d="M345.971 131.592C342.454 128.264 340.11 126.064 340.11 123.057C340.11 121.071 341.116 119.46 343.348 119.46C345.468 119.46 346.584 120.856 346.584 124.775V125.902C346.584 126.439 347.086 126.922 347.644 126.922H351.55C352.219 126.922 352.777 126.385 352.777 125.741V124.453C352.777 117.207 349.206 113.932 343.348 113.932C336.539 113.932 333.694 118.387 333.694 123.325C333.694 128.854 337.321 132.398 340.669 135.511C344.073 138.624 346.863 141.039 346.863 144.636C346.863 147.535 345.077 148.34 343.292 148.34C340.669 148.34 339.609 146.623 339.609 143.616V141.415C339.609 140.664 338.996 140.073 338.213 140.073H334.81C334.029 140.073 333.415 140.664 333.415 141.415V144.099C333.415 149.842 337.211 153.977 343.348 153.977C349.206 153.977 353.279 150.165 353.279 144.153C353.279 138.839 350.099 135.511 345.971 131.592Z" fill="#13191E"></path><path d="M375.164 114.576H371.314C370.533 114.576 369.917 115.167 369.917 115.918V130.358C369.917 130.626 369.639 130.895 369.36 130.895H363.39C363.111 130.895 362.83 130.626 362.83 130.358V115.918C362.83 115.167 362.217 114.576 361.436 114.576H357.587C356.804 114.576 356.191 115.167 356.191 115.918V151.99C356.191 152.741 356.804 153.332 357.587 153.332H361.436C362.217 153.332 362.83 152.741 362.83 151.99V137.121C362.83 136.853 363.111 136.584 363.39 136.584H369.36C369.639 136.584 369.917 136.853 369.917 137.121V151.99C369.917 152.741 370.533 153.332 371.314 153.332H375.164C375.945 153.332 376.559 152.741 376.559 151.99V115.918C376.559 115.167 375.945 114.576 375.164 114.576Z" fill="#13191E"></path><path d="M258.489 147.583C258.058 148.331 257.621 148.843 257.149 149.15C256.943 149.285 256.535 149.43 256.131 149.43C255.754 149.43 255.464 149.316 255.242 149.082C251.884 145.535 251.853 131.961 255.187 126.387C256.312 124.509 257.767 124.306 258.342 124.306C258.43 124.306 258.516 124.31 258.6 124.319C259.471 124.406 260.178 125.648 260.374 126.026C262.926 130.978 261.452 142.555 258.489 147.583ZM235.985 131.146C236 119.28 237.925 112.868 239.389 111.376C239.559 111.202 239.718 111.106 239.838 111.106C240.196 111.106 240.743 112.094 240.784 114.821C240.784 114.821 240.793 115.082 240.793 115.148C240.793 118.845 240.324 122.648 239.463 126.466C238.428 131.053 236.536 134.908 236.147 135.674C236.044 134.206 235.989 132.681 235.985 131.146ZM221.998 112.247C222.207 112.036 222.4 111.925 222.558 111.925C222.596 111.925 222.716 111.925 222.872 112.095C223.436 112.708 224.022 114.831 223.436 118.88C221.82 130.057 218.579 134.882 218.579 134.882C218.204 122.076 220.083 114.175 221.998 112.247ZM196.917 135.962L196.929 135.881C198.242 127.181 200.273 124.081 201.735 124.081C202.25 124.081 202.638 124.483 202.871 124.819C204.515 127.186 204.472 130.933 202.772 133.532C201.42 135.599 199.384 136.032 197.915 136.032C197.606 136.032 197.299 136.012 197 135.973L196.917 135.962ZM261.256 121.319C259.966 120.654 258.756 120.331 257.553 120.331C256.322 120.331 255.097 120.678 253.803 121.392C250.29 123.329 248.153 127.861 247.074 134.704C245.666 141.34 242.074 147.815 240.281 147.794C238.764 147.776 237.609 145.22 236.881 141.495C240.51 134.864 243.236 126.068 244.021 118.378C244.162 117.013 244.234 115.717 244.237 114.524V114.403C244.078 108.224 241.352 105.898 238.855 105.781C238.807 105.779 238.759 105.778 238.71 105.778C237.518 105.778 236.287 106.481 235.148 107.81C232.909 110.428 231.222 115.091 230.399 120.942C229.985 123.883 229.82 127.059 229.873 130.381L229.859 130.379C229.755 134.914 230.179 138.998 230.982 142.423C231.075 143 231.161 143.574 231.267 144.155L231.275 144.194L231.214 144.261C229.719 146.052 228.168 147.43 226.73 148.245L226.455 148.408L226.462 148.422L226.282 148.536L226.26 148.507L226.017 148.62C225.36 148.924 224.746 149.08 224.194 149.08L224.137 149.078C221.798 149.037 220.102 146.11 219.095 140.378L219.09 140.352L219.18 140.18C222.887 133.876 224.77 127.474 224.851 127.199L224.964 126.782C227.468 118.697 227.502 111.849 225.052 108.462C224.186 107.264 223.058 106.604 221.791 106.557C221.732 106.555 221.672 106.554 221.612 106.554C220.085 106.554 218.67 107.28 217.406 108.713C212.75 113.994 211.266 127.457 213.626 143.009L213.632 143.045L213.607 143.074C211.961 144.953 210.214 146.45 208.415 147.518C206.145 148.836 204.327 149.138 203.449 149.201C203.328 149.208 203.207 149.216 203.089 149.216C201.719 149.216 200.548 148.741 199.608 147.805C197.992 146.198 197.077 142.995 197.034 138.785L197.032 138.684L197.133 138.704C198.022 138.883 198.845 138.97 199.651 138.97C202.616 138.97 205.102 137.914 206.839 135.916C208.328 134.203 209.182 131.827 209.182 129.398C209.182 123.802 205.423 121.254 201.929 121.254C200.32 121.254 197.929 121.75 195.675 124.115C193.629 126.261 192.151 129.475 191.281 133.666L191.259 133.773L191.161 133.722C190.197 133.221 188.687 132.465 186.712 131.691L186.659 131.671L186.664 131.437C186.746 127.272 186.884 122.854 187.018 118.541C187.111 115.537 187.206 112.505 187.283 109.506C187.348 108.191 187.004 107.139 186.26 106.376C185.149 105.239 183.393 105 182.114 105C181.584 105 181.141 105.041 180.862 105.075C180.546 105.115 180.328 105.382 180.364 105.683C180.758 109.022 180.902 118.931 180.716 129.78L180.714 129.879L180.615 129.858C179.796 129.689 179.025 129.56 178.251 129.466L178.027 129.442C176.224 129.185 174.525 129.029 172.975 128.976C172.559 128.962 172.149 128.956 171.743 128.956C171.647 128.956 171.367 128.958 171.134 128.96L171.138 128.875C171.378 122.613 171.736 116.716 171.739 116.656C171.807 115.288 171.448 114.192 170.674 113.398C169.519 112.214 167.688 111.966 166.356 111.966C165.824 111.966 165.382 112.005 165.104 112.037C164.756 112.078 164.508 112.368 164.541 112.695C164.777 115.069 164.906 122.299 164.839 129.514L164.839 129.58L164.774 129.594C162.202 130.125 160.086 130.826 159.054 131.197C158.503 131.393 157.723 131.721 156.733 132.17C155.065 132.927 154.99 134.762 155.433 136.103C155.726 136.99 156.282 137.536 156.352 137.601C156.518 137.75 156.73 137.831 156.95 137.831C157.055 137.831 157.158 137.813 157.256 137.779C157.478 137.702 158.935 137.085 159.416 136.876C159.569 136.809 159.733 136.748 159.938 136.672C160.058 136.627 160.181 136.581 160.303 136.533L160.582 136.423C160.814 136.331 161.057 136.236 161.325 136.145C161.74 135.991 162.131 135.831 162.565 135.652C163.195 135.393 163.847 135.125 164.64 134.867L164.752 134.83L164.749 134.946C164.726 135.878 164.699 136.789 164.669 137.667C164.499 142.475 164.169 157.567 164.156 158.206C164.021 161.101 164.487 163.053 165.58 164.171C166.803 165.421 168.624 165.421 169.952 165.421L170.774 165.422C170.945 165.422 171.106 165.352 171.215 165.232C171.32 165.117 171.368 164.963 171.348 164.808C170.598 159.166 170.799 144.27 170.921 138.122C170.921 136.8 170.942 135.279 170.986 133.601L170.987 133.532L171.057 133.522C171.821 133.424 172.521 133.347 173.194 133.288C174.245 133.201 175.357 133.157 176.498 133.157C177.203 133.157 177.936 133.175 178.679 133.209L178.807 133.214C178.933 133.22 179.06 133.226 179.192 133.235L179.513 133.258C179.845 133.286 180.192 133.325 180.569 133.376L180.642 133.386L180.617 134.47C180.528 138.454 180.405 143.91 180.238 147.331C180.109 150.107 180.557 151.978 181.607 153.052C182.692 154.16 184.207 154.251 185.795 154.251L186.535 154.252C186.718 154.252 186.891 154.178 187.006 154.05C187.117 153.929 187.168 153.766 187.149 153.604C186.714 150.193 186.512 143.224 186.607 134.96L186.609 134.846L186.718 134.885C188.714 135.584 190.209 136.303 190.759 136.58L190.807 136.604L190.803 136.656C190.472 142.544 191.814 147.38 194.582 150.275C196.439 152.214 198.858 153.239 201.579 153.239C205.266 153.239 208.806 151.812 212.098 149C213.261 148.03 214.12 147.121 214.637 146.529L214.731 146.422L214.817 146.658C216.416 150.859 219.221 153.268 222.513 153.268C222.539 153.268 222.565 153.267 222.63 153.261C222.92 153.257 223.223 153.24 223.563 153.207C223.596 153.206 223.628 153.204 223.659 153.201C224.675 153.082 225.714 152.795 226.752 152.348L226.805 152.325C227.062 152.212 227.311 152.089 227.557 151.96C227.739 151.864 227.92 151.764 228.133 151.639C228.2 151.601 228.342 151.519 228.392 151.489C230.26 150.347 231.648 148.935 232.484 147.953L232.567 147.855L232.624 147.97C233.367 149.5 234.278 150.717 235.311 151.596C238.937 155.234 243.714 153.273 247.565 143.24V143.245C248.396 147.736 250.114 152.087 254.51 153.003C255.163 153.175 255.847 153.262 256.544 153.262C257.276 153.262 258.007 153.164 258.714 152.972C261.833 152.128 265.427 147.241 266.424 138.225C267.112 132.01 266.17 123.854 261.256 121.319Z" fill="#13191E"></path><path d="M145.284 118.453C145.286 118.527 145.818 118.996 146.075 119.422C146.331 119.848 146.575 120.227 146.644 120.657C146.691 120.945 146.617 121.038 146.483 121.038C145.722 121.038 142.045 115.554 134.748 113.602C130.653 112.507 124.954 112.083 120.256 113.635C116.214 114.97 112.644 117.467 109.891 120.635C106.79 124.202 104.794 128.479 104.4 133.166C104.238 135.092 104.392 137.072 104.04 138.98C103.951 139.462 103.783 139.915 103.612 140.368C103.525 140.593 102.819 142.598 104.211 145.333C105.53 147.923 109.586 148.32 109.962 147.154C110.308 146.085 110.853 145.846 111.29 145.846C111.896 145.846 112.238 146.418 112.548 146.557C133.277 155.886 148.876 133.017 148.876 133.017C149.149 131.472 149.282 129.901 149.306 128.334C149.328 126.897 149.239 125.505 149.439 124.076C149.625 122.742 149.682 121.47 149.012 120.244C148.533 119.375 147.739 118.919 146.816 118.623C146.583 118.549 145.274 118.086 145.284 118.453Z" fill="#13191E"></path><path d="M111.29 145.846C110.853 145.846 110.308 146.085 109.962 147.155C109.585 148.321 105.529 147.923 104.211 145.333C102.819 142.598 103.525 140.594 103.631 140.324C103.584 140.44 103.557 140.513 103.53 140.585C103.564 140.498 103.594 140.411 103.631 140.326C103.594 140.412 103.563 140.5 103.529 140.587C103.436 140.835 103.35 141.087 103.277 141.344C103.239 141.482 103.206 141.622 103.175 141.761C103.166 141.805 103.157 141.85 103.148 141.894C103.118 142.045 103.091 142.196 103.071 142.348C103.091 142.197 103.118 142.046 103.148 141.895C102.975 142.75 102.942 143.635 103.11 144.491C103.571 146.852 105.347 148.066 107.587 148.703C109.051 149.12 110.462 149.483 111.801 150.217C112.998 150.874 114.164 151.588 115.431 152.116C120.894 154.391 127.287 154.223 132.801 152.217C138.447 150.164 143.271 146.236 146.12 141.029C147.487 138.528 148.384 135.808 148.876 133.018C148.876 133.018 133.277 155.887 112.547 146.557C112.238 146.418 111.895 145.846 111.29 145.846Z" fill="#13191E"></path><path d="M120.845 121.188C120.6 121.277 118.709 118.612 119.664 118.09C125.975 114.64 135.683 116.773 140.398 119.697C140.768 119.926 140.931 120.055 140.932 120.115C141.493 121.052 130.263 117.749 120.845 121.188Z" fill="#FFFFFE"></path></g><defs><clipPath id="clip0_2512_790"><rect width="274" height="60.7511" fill="white" transform="translate(103 105)"></rect></clipPath></defs></svg> 