<?xml version="1.0" encoding="UTF-8"?> <svg xmlns="http://www.w3.org/2000/svg" width="414" height="93" viewBox="0 0 414 93" fill="none"><g clip-path="url(#clip0_228_1811)"><path d="M276.164 14.6592H253.906C252.726 14.6592 251.798 15.5634 251.798 16.7128V71.9337C251.798 73.084 252.726 73.9884 253.906 73.9884H259.807C260.987 73.9884 261.917 73.084 261.917 71.9337V48.6787C261.917 48.2677 262.338 47.8568 262.76 47.8568H272.033C273.215 47.8568 274.143 46.9527 274.143 45.8032V41.4469C274.143 40.2974 273.215 39.3932 272.033 39.3932H262.76C262.338 39.3932 261.917 38.9822 261.917 38.5713V24.0261C261.917 23.6161 262.338 23.2052 262.76 23.2052H276.164C277.346 23.2052 278.274 22.3011 278.274 21.1497V16.7128C278.274 15.5634 277.346 14.6592 276.164 14.6592Z" fill="#91C11E"></path><path d="M297.139 41.4469H294.02C293.597 41.4469 293.177 41.0368 293.177 40.6249V23.6975C293.177 23.2866 293.597 22.8758 294.02 22.8758H297.139C301.694 22.8758 303.041 24.9303 303.041 32.1622C303.041 39.3932 301.694 41.4469 297.139 41.4469ZM305.908 48.761C305.738 48.2677 305.992 47.7744 306.414 47.6097C311.052 45.2266 312.99 41.694 312.99 32.4075C312.99 22.3011 310.63 14.6592 298.827 14.6592H285.167C283.987 14.6592 283.059 15.5634 283.059 16.7128V71.9337C283.059 73.084 283.987 73.9884 285.167 73.9884H291.069C292.251 73.9884 293.177 73.084 293.177 71.9337V50.1577C293.177 49.7468 293.597 49.3368 294.02 49.3368H295.959C296.465 49.3368 296.887 49.6643 297.056 50.1577L303.126 72.0162C303.463 73.1665 304.56 73.9884 305.825 73.9884H311.473C312.569 73.9884 313.244 73.0018 312.99 72.0162L305.908 48.761Z" fill="#91C11E"></path><path d="M342.556 65.1962H328.812C328.393 65.1962 327.969 64.7843 327.969 64.3742V48.2677C327.969 47.8568 328.393 47.446 328.812 47.446H337.666C338.846 47.446 339.774 46.5426 339.774 45.3913V41.2015C339.774 40.0502 338.846 39.146 337.666 39.146H328.812C328.393 39.146 327.969 38.736 327.969 38.3241V24.1086C327.969 23.6975 328.393 23.2866 328.812 23.2866H341.88C343.062 23.2866 343.99 22.3833 343.99 21.232V16.7128C343.99 15.5634 343.062 14.6592 341.88 14.6592H320.044C318.863 14.6592 317.936 15.5634 317.936 16.7128V71.9337C317.936 73.084 318.863 73.9884 320.044 73.9884H342.556C343.736 73.9884 344.664 73.084 344.664 71.9337V67.2498C344.664 66.0985 343.736 65.1962 342.556 65.1962Z" fill="#91C11E"></path><path d="M367.117 40.7077C361.803 35.6127 358.261 32.2449 358.261 27.6424C358.261 24.6021 359.78 22.1366 363.153 22.1366C366.356 22.1366 368.042 24.2735 368.042 30.2716V31.9977C368.042 32.8196 368.801 33.5591 369.644 33.5591H375.546C376.557 33.5591 377.4 32.7372 377.4 31.7505V29.7794C377.4 18.6863 372.004 13.6729 363.153 13.6729C352.865 13.6729 348.566 20.4929 348.566 28.0533C348.566 36.5169 354.047 41.9413 359.106 46.7068C364.248 51.473 368.464 55.1704 368.464 60.6762C368.464 65.114 365.765 66.3457 363.068 66.3457C359.106 66.3457 357.504 63.7173 357.504 59.1149V55.7452C357.504 54.5957 356.577 53.6915 355.394 53.6915H350.253C349.072 53.6915 348.145 54.5957 348.145 55.7452V59.8543C348.145 68.6465 353.88 74.9751 363.153 74.9751C372.004 74.9751 378.159 69.1399 378.159 59.9368C378.159 51.8026 373.354 46.7068 367.117 40.7077Z" fill="#91C11E"></path><path d="M411.225 14.6592H405.408C404.228 14.6592 403.298 15.5634 403.298 16.7128V38.8185C403.298 39.2285 402.878 39.6402 402.456 39.6402H393.435C393.014 39.6402 392.59 39.2285 392.59 38.8185V16.7128C392.59 15.5634 391.664 14.6592 390.484 14.6592H384.667C383.484 14.6592 382.559 15.5634 382.559 16.7128V71.9337C382.559 73.084 383.484 73.9884 384.667 73.9884H390.484C391.664 73.9884 392.59 73.084 392.59 71.9337V49.1721C392.59 48.761 393.014 48.3501 393.435 48.3501H402.456C402.878 48.3501 403.298 48.761 403.298 49.1721V71.9337C403.298 73.084 404.228 73.9884 405.408 73.9884H411.225C412.405 73.9884 413.333 73.084 413.333 71.9337V16.7128C413.333 15.5634 412.405 14.6592 411.225 14.6592Z" fill="#91C11E"></path><path d="M234.937 65.1872C234.286 66.3328 233.625 67.1169 232.912 67.5864C232.6 67.7929 231.984 68.0144 231.374 68.0144C230.804 68.0144 230.366 67.8402 230.031 67.4822C224.957 62.0523 224.91 41.2722 229.948 32.7403C231.647 29.8648 233.846 29.5544 234.714 29.5544C234.848 29.5544 234.978 29.561 235.104 29.5742C236.421 29.7067 237.489 31.608 237.785 32.1873C241.641 39.7676 239.413 57.4903 234.937 65.1872ZM200.935 40.0251C200.957 21.8604 203.866 12.0446 206.078 9.75989C206.334 9.49383 206.575 9.34708 206.756 9.34708C207.297 9.34708 208.124 10.8601 208.186 15.0337C208.186 15.0337 208.199 15.4333 208.199 15.5355C208.199 21.1947 207.49 27.0167 206.189 32.8614C204.625 39.8823 201.767 45.7847 201.179 46.9569C201.023 44.7092 200.941 42.3743 200.935 40.0251ZM179.801 11.094C180.116 10.7711 180.408 10.6016 180.646 10.6016C180.704 10.6016 180.886 10.6016 181.121 10.8611C181.974 11.7994 182.859 15.0489 181.974 21.2478C179.531 38.358 174.635 45.745 174.635 45.745C174.068 26.14 176.907 14.0452 179.801 11.094ZM141.904 47.3971L141.922 47.2742C143.907 33.9551 146.975 29.2096 149.185 29.2096C149.963 29.2096 150.548 29.8251 150.901 30.3401C153.385 33.9636 153.32 39.6986 150.751 43.6782C148.708 46.8414 145.632 47.5052 143.412 47.5052C142.946 47.5052 142.481 47.4748 142.03 47.4143L141.904 47.3971ZM239.118 24.9821C237.169 23.9642 235.34 23.4699 233.523 23.4699C231.663 23.4699 229.812 24.0002 227.857 25.0928C222.549 28.0583 219.319 34.9957 217.689 45.4722C215.562 55.6307 210.135 65.5431 207.426 65.5111C205.133 65.4836 203.388 61.5703 202.288 55.8676C207.771 45.7165 211.89 32.2518 213.076 20.4799C213.289 18.3893 213.398 16.4057 213.402 14.5802V14.3937C213.163 4.93582 209.044 1.37479 205.271 1.19584C205.198 1.19206 205.125 1.19111 205.052 1.19111C203.251 1.19111 201.391 2.2667 199.67 4.30239C196.286 8.30936 193.737 15.4484 192.494 24.4044C191.869 28.9067 191.62 33.7685 191.699 38.854L191.678 38.8513C191.521 45.7932 192.162 52.0453 193.375 57.2888C193.516 58.1721 193.646 59.0509 193.806 59.9399L193.818 59.9995L193.726 60.1018C191.466 62.8438 189.123 64.9533 186.95 66.2003L186.535 66.4512L186.545 66.4721L186.274 66.6463L186.24 66.6027L185.873 66.775C184.881 67.2409 183.952 67.4785 183.119 67.4785L183.033 67.4767C179.499 67.4132 176.936 62.9319 175.414 54.1576L175.407 54.1188L175.543 53.8555C181.144 44.2046 183.989 34.404 184.111 33.9834L184.282 33.3444C188.066 20.9676 188.117 10.4842 184.415 5.30034C183.107 3.46539 181.402 2.45607 179.488 2.38411C179.398 2.38032 179.308 2.37937 179.218 2.37937C176.91 2.37937 174.772 3.49095 172.863 5.68381C165.827 13.7688 163.585 34.3773 167.151 58.1853L167.16 58.2411L167.122 58.2847C164.635 61.1622 161.995 63.4527 159.278 65.0886C155.847 67.1055 153.101 67.5684 151.774 67.6649C151.591 67.6755 151.409 67.6868 151.23 67.6868C149.16 67.6868 147.391 66.9606 145.97 65.528C143.529 63.0672 142.147 58.1636 142.081 51.7196L142.079 51.5652L142.231 51.5954C143.574 51.87 144.818 52.0025 146.035 52.0025C150.516 52.0025 154.272 50.3864 156.896 47.3271C159.146 44.7053 160.437 41.0678 160.437 37.3486C160.437 28.7835 154.756 24.8827 149.477 24.8827C147.046 24.8827 143.434 25.642 140.028 29.2626C136.937 32.5471 134.703 37.4668 133.389 43.8836L133.356 44.0473L133.208 43.9679C131.751 43.201 129.469 42.0439 126.485 40.8603L126.405 40.8282L126.412 40.4711C126.537 34.0942 126.745 27.3321 126.948 20.7289C127.088 16.1311 127.231 11.4888 127.348 6.89764C127.446 4.88562 126.926 3.27414 125.802 2.1067C124.124 0.365475 121.47 0 119.538 0C118.737 0 118.068 0.0624906 117.646 0.115513C117.169 0.17611 116.839 0.585139 116.894 1.0453C117.489 6.15627 117.707 21.3263 117.425 37.9347L117.422 38.0852L117.273 38.0539C116.035 37.7946 114.87 37.5976 113.701 37.4528L113.362 37.4168C110.639 37.0237 108.071 36.7842 105.729 36.7038C105.101 36.6819 104.481 36.6726 103.868 36.6726C103.723 36.6726 103.3 36.6763 102.948 36.6792L102.953 36.5494C103.316 26.9619 103.857 17.9358 103.862 17.8439C103.964 15.7495 103.422 14.0708 102.253 12.856C100.507 11.0438 97.7406 10.6632 95.7285 10.6632C94.9248 10.6632 94.257 10.7228 93.8369 10.772C93.3107 10.8355 92.9366 11.2786 92.9854 11.7804C93.3423 15.4134 93.5374 26.4819 93.437 37.5276L93.4359 37.6278L93.3376 37.6487C89.452 38.4629 86.2553 39.5357 84.6958 40.1028C83.8633 40.404 82.6837 40.9049 81.1891 41.5923C78.669 42.7511 78.5551 45.5603 79.2239 47.6141C79.667 48.9717 80.5069 49.8069 80.6131 49.9073C80.863 50.1344 81.1843 50.2584 81.5164 50.2584C81.6752 50.2584 81.8312 50.232 81.9794 50.1799C82.3144 50.0607 84.515 49.1176 85.243 48.7975C85.4737 48.6944 85.7215 48.6016 86.0304 48.4842C86.2131 48.416 86.3989 48.3459 86.5825 48.2711L87.0045 48.1035C87.3548 47.9626 87.7212 47.8167 88.1269 47.6784C88.7535 47.4418 89.3439 47.1965 90.0001 46.9239C90.9522 46.5271 91.9376 46.117 93.1356 45.7213L93.3049 45.6655L93.3002 45.8426C93.2656 47.2694 93.2255 48.6632 93.1797 50.0075C92.9232 57.3674 92.4247 80.4708 92.4036 81.449C92.1999 85.882 92.904 88.8691 94.5565 90.5812C96.4041 92.4947 99.1548 92.4947 101.162 92.4947L102.404 92.4955C102.662 92.4955 102.905 92.3895 103.07 92.2049C103.228 92.0289 103.302 91.7931 103.271 91.5562C102.138 82.9194 102.442 60.116 102.626 50.7036C102.626 48.6812 102.658 46.3529 102.724 43.7832L102.726 43.6771L102.832 43.6629C103.986 43.5124 105.043 43.395 106.06 43.3041C107.649 43.1716 109.329 43.1043 111.053 43.1043C112.117 43.1043 113.225 43.1309 114.348 43.183L114.541 43.1904C114.732 43.1999 114.923 43.2095 115.123 43.2227L115.608 43.2576C116.109 43.3012 116.634 43.3609 117.204 43.4386L117.314 43.4537L117.276 45.1135C117.141 51.212 116.955 59.5648 116.704 64.8018C116.509 69.0521 117.185 71.9163 118.772 73.5591C120.411 75.2558 122.7 75.3959 125.099 75.3959L126.218 75.3968C126.495 75.3968 126.755 75.2841 126.929 75.0872C127.097 74.9016 127.175 74.6525 127.145 74.4045C126.489 69.1837 126.183 58.5139 126.327 45.8643L126.329 45.6892L126.495 45.7488C129.51 46.8197 131.769 47.9198 132.6 48.3441L132.672 48.3811L132.667 48.4604C132.166 57.4734 134.194 64.8766 138.377 69.3088C141.182 72.2769 144.837 73.8459 148.948 73.8459C154.519 73.8459 159.868 71.6617 164.842 67.3564C166.599 65.8717 167.898 64.4808 168.679 63.5748L168.821 63.4109L168.951 63.7718C171.366 70.2026 175.604 73.8904 180.579 73.8904C180.618 73.8904 180.657 73.8885 180.755 73.88C181.194 73.8742 181.652 73.8478 182.166 73.7976C182.215 73.7957 182.264 73.7928 182.311 73.7872C183.845 73.6054 185.415 73.167 186.983 72.4815L187.063 72.4466C187.452 72.2732 187.828 72.0857 188.2 71.8888C188.475 71.741 188.749 71.5877 189.071 71.3965C189.171 71.3378 189.386 71.2128 189.461 71.1663C192.284 69.4185 194.382 67.2578 195.645 65.7533L195.77 65.6038L195.856 65.7799C196.979 68.1223 198.355 69.9856 199.916 71.3302C205.394 76.8994 212.613 73.898 218.431 58.5385V58.5462C219.687 65.422 222.283 72.082 228.925 73.4851C229.911 73.7473 230.944 73.8808 231.998 73.8808C233.104 73.8808 234.208 73.7314 235.276 73.4378C239.99 72.1455 245.419 64.6635 246.926 50.8617C247.965 41.348 246.543 28.8622 239.118 24.9821Z" fill="#91C11E"></path><path d="M63.8877 20.5938C63.8906 20.7074 64.6953 21.4251 65.0828 22.0774C65.4703 22.7298 65.8396 23.3102 65.9438 23.9682C66.0137 24.4094 65.9027 24.5516 65.6999 24.5516C64.5498 24.5516 58.9938 16.157 47.9686 13.1688C41.782 11.4919 33.17 10.8434 26.0724 13.219C19.9653 15.2622 14.5709 19.0855 10.4108 23.9343C5.72541 29.3946 2.70961 35.9429 2.11449 43.1169C1.87051 46.0662 2.10302 49.097 1.57104 52.0172C1.43613 52.7556 1.18163 53.4496 0.923294 54.1428C0.79317 54.4873 -0.273649 57.5561 1.82937 61.7429C3.82142 65.7082 9.94964 66.316 10.5189 64.5313C11.0413 62.8943 11.8651 62.5287 12.5253 62.5287C13.44 62.5287 13.9576 63.4037 14.4255 63.6168C45.7469 77.8987 69.3156 42.8898 69.3156 42.8898C69.7279 40.5245 69.929 38.1195 69.9653 35.7203C69.9988 33.5207 69.8647 31.3904 70.1662 29.2024C70.4475 27.1599 70.5337 25.2123 69.5204 23.3358C68.7979 22.0065 67.5982 21.3078 66.2032 20.8552C65.851 20.7415 63.8734 20.0323 63.8877 20.5938Z" fill="#91C11E"></path><path d="M12.5254 62.5295C11.8652 62.5295 11.0414 62.8951 10.519 64.5321C9.94974 66.3169 3.82151 65.7091 1.82947 61.7438C-0.273554 57.5569 0.793265 54.4881 0.954006 54.0762C0.882248 54.2534 0.842061 54.3641 0.80092 54.4749C0.85163 54.3424 0.897555 54.2089 0.95305 54.0783C0.897555 54.2098 0.850673 54.3443 0.799963 54.4778C0.659314 54.8585 0.529191 55.2437 0.418205 55.6368C0.360797 55.8488 0.311044 56.0619 0.265118 56.2758C0.250765 56.343 0.237371 56.4112 0.223975 56.4785C0.179006 56.7104 0.137864 56.9415 0.107247 57.1734C0.137864 56.9423 0.179006 56.7115 0.223975 56.4804C-0.0372281 57.7888 -0.0869812 59.1447 0.165611 60.4552C0.86311 64.0682 3.54595 65.9278 6.93106 66.903C9.14221 67.5402 11.2749 68.0961 13.2985 69.2208C15.1068 70.2264 16.8683 71.3191 18.7819 72.1267C27.037 75.6101 36.6959 75.3526 45.0285 72.2819C53.5593 69.1394 60.8472 63.1262 65.1517 55.1548C67.2183 51.3257 68.5732 47.1626 69.3156 42.8906C69.3156 42.8906 45.7471 77.8995 14.4256 63.6174C13.9577 63.4046 13.4401 62.5295 12.5254 62.5295Z" fill="#659A41"></path><path d="M26.9617 24.7806C26.5916 24.9178 23.7354 20.837 25.1773 20.0388C34.7138 14.7565 49.3821 18.0231 56.5055 22.4978C57.0652 22.8491 57.3111 23.0461 57.3122 23.1387C58.1599 24.5723 41.193 19.5162 26.9617 24.7806Z" fill="#FFFFFE"></path></g><defs><clipPath id="clip0_228_1811"><rect width="413.333" height="93" fill="white"></rect></clipPath></defs></svg> 