<?xml version="1.0" encoding="UTF-8"?> <svg xmlns="http://www.w3.org/2000/svg" width="480" height="271" viewBox="0 0 480 271" fill="none"><path d="M342.228 155.387C342.113 155.387 341.996 155.271 341.996 155.387C341.996 155.387 324.611 152.953 323.683 148.896C322.64 144.492 317.077 145.535 316.961 142.058C316.961 140.319 319.048 141.015 319.511 140.203C320.09 139.276 319.279 138.812 316.613 137.306C309.659 133.133 310.702 126.527 311.745 125.483C313.252 124.208 314.991 126.874 315.802 125.715C316.73 124.44 311.514 117.37 322.408 109.372C322.408 109.372 323.683 113.545 327.623 114.936C331.797 116.443 324.959 122.122 326.465 125.947C327.277 128.033 329.015 125.368 330.521 123.861C331.797 122.586 333.651 119.225 335.97 120.036C338.056 120.615 337.244 123.281 337.708 124.788C338.288 126.642 339.795 126.063 340.606 127.686C341.417 129.192 340.837 129.888 338.52 131.858C334.231 135.567 336.318 139.624 337.477 138.812C339.215 137.653 338.982 136.263 341.765 136.147C343.966 136.031 344.662 138.117 344.083 139.74C343.503 141.246 343.155 141.826 343.503 142.869C344.431 145.767 343.851 144.84 342.344 147.389C341.069 149.592 341.069 151.678 342.576 155.155C347.908 157.821 347.328 152.721 352.08 153.764C362.744 156.199 356.948 152.721 358.802 150.983C360.426 149.36 361.468 150.751 363.671 149.939C366.917 147.853 367.263 147.158 371.553 150.519C375.03 144.956 377 138.349 377 131.395C377 125.252 375.493 119.456 372.827 114.472C371.32 113.081 370.046 112.154 370.394 114.472C370.625 115.747 376.073 125.947 367.843 133.944V133.713C367.728 132.785 367.148 129.077 364.019 128.613C360.077 128.033 363.323 122.006 361.468 119.224C358.802 115.284 358.108 120.731 357.18 121.89C356.252 123.049 352.196 125.368 352.196 122.238C352.196 118.645 349.762 118.297 348.719 117.138C347.791 115.979 348.139 115.4 349.878 113.545C353.007 110.068 350.805 107.866 349.878 108.677C348.487 109.836 348.835 110.184 346.284 110.648C344.431 111.111 344.431 107.866 344.662 106.475C345.938 98.9411 340.954 96.1594 333.883 96.0435C317.192 99.2888 304.675 114.009 304.675 131.51C304.675 151.446 320.901 167.673 340.837 167.673C345.821 167.673 350.458 166.63 354.745 164.891C349.646 166.05 346.864 164.196 346.632 163.385C346.053 161.993 350.341 162.921 346.284 160.835C343.851 159.56 342.807 157.125 342.576 156.082L342.228 155.387Z" fill="#13191E"></path><path d="M344.315 156.43C344.315 156.43 320.555 147.157 319.742 123.744C319.742 123.86 321.945 141.594 344.315 156.43ZM344.083 95C344.779 95.1159 349.878 95.8113 355.325 99.1726C357.297 101.027 360.195 105.663 355.79 115.167C355.79 115.167 361.468 107.518 359.961 102.997C364.714 107.75 368.655 115.283 368.77 127.106C368.887 127.222 374.102 97.3181 344.083 95ZM367.959 154.228C366.105 155.386 363.207 157.937 358.339 156.43C358.339 156.43 360.195 157.821 363.207 157.821C359.382 159.791 355.21 160.255 348.487 158.632C348.487 158.632 361.933 166.513 371.32 151.446C371.32 151.33 369.002 153.532 367.959 154.228Z" fill="#13191E"></path><path d="M114.591 122.238C114.591 124.904 115.054 125.599 116.909 125.599V126.295H109.143V125.599C110.65 125.599 111.577 125.136 111.577 122.122V105.548H108.563C105.666 105.548 104.275 106.359 104.159 108.677H103.464V103.693H104.159C104.507 103.925 104.854 104.157 105.318 104.273C105.782 104.389 106.477 104.505 107.404 104.505H118.763C120.618 104.505 121.545 104.273 122.24 103.693H122.936V108.677H122.472C122.008 106.823 121.313 105.548 117.836 105.548H114.591V122.238ZM137.887 123.049C137.887 125.136 138.235 125.599 140.09 125.599V126.295H133.135V125.599C134.99 125.599 135.338 125.136 135.338 123.397V116.791C135.338 115.052 134.294 113.893 132.672 113.893C131.165 113.893 130.006 114.588 128.731 116.443V123.745C128.731 125.136 129.31 125.599 130.933 125.599V126.295H123.863V125.599C125.833 125.599 126.297 125.136 126.297 123.049V105.548C126.297 103.809 125.833 103.577 123.863 103.577V102.882L128.151 102.418H128.847V115.052C130.586 113.082 131.745 112.386 133.483 112.386C135.685 112.386 138.003 113.893 138.003 117.022L137.887 123.049ZM151.564 117.37C151.68 114.472 149.71 113.198 147.971 113.198C145.769 113.198 144.378 114.82 144.262 117.37H151.564ZM144.146 118.066C144.03 124.093 147.623 125.599 149.478 125.599C151.333 125.599 152.26 124.904 154.23 122.818V123.861C152.607 125.947 151.101 126.758 148.667 126.758C144.494 126.758 141.481 123.861 141.481 119.804C141.481 115.748 144.378 112.618 148.203 112.618C151.333 112.618 154.23 115.168 153.998 118.181L144.146 118.066ZM188.886 134.408H187.843L163.618 104.505H163.503V128.613C163.503 132.09 164.893 133.365 168.023 133.365V134.408H157.591V133.365C160.489 133.365 161.88 132.438 161.88 127.454V107.402C161.88 103.577 160.837 101.375 156.78 101.028V99.9844H165.589L187.031 126.758H187.147V106.591C187.147 102.071 185.988 100.912 182.975 100.912V99.9844H193.406V101.028C190.045 101.028 189.002 102.418 189.002 106.475L188.886 134.408ZM220.644 113.082H228.062V114.588H220.644V128.265C220.644 131.163 222.15 132.67 224.469 132.67C225.975 132.67 227.135 132.09 228.41 130.583L229.105 131.395C227.25 133.713 225.048 134.988 222.73 134.988C219.137 134.988 216.587 132.438 216.587 128.845V114.588H212.53V113.545C215.428 112.154 217.862 109.489 219.601 105.896H220.644V113.082ZM252.17 130.352C252.17 132.67 252.981 133.365 255.88 133.365V134.408L248.113 134.872V130.931H247.998C245.912 133.713 243.477 135.104 240.58 135.104C236.407 135.104 233.625 131.974 233.625 127.918V117.022C233.625 114.936 232.93 114.241 229.8 114.241V113.198L236.639 112.502H237.682V127.686C237.682 130.699 239.652 132.438 242.434 132.438C244.521 132.438 246.375 131.279 248.113 128.961V117.486C248.113 114.588 247.65 114.241 243.94 114.125V113.082L251.127 112.386H252.17V130.352ZM265.384 130.352C265.384 132.67 266.079 133.365 268.977 133.365V134.408H257.733V133.365C260.979 133.365 261.327 132.554 261.327 129.308V117.718C261.327 114.588 260.516 114.241 256.922 114.241V113.198L264.341 112.502H265.384V117.138C269.324 113.777 271.178 112.502 272.685 112.502C273.845 112.502 275.466 113.198 276.626 114.125L275.003 117.95C273.265 117.022 271.41 116.095 270.02 116.095C268.629 116.095 267.47 116.791 265.5 118.645L265.384 130.352ZM292.737 120.384C292.968 115.748 289.723 113.777 287.058 113.777C283.465 113.777 281.378 116.443 281.147 120.384H292.737ZM281.147 121.427C281.03 130.931 286.71 133.365 289.608 133.365C292.506 133.365 294.013 132.322 297.141 128.961V130.468C294.592 133.713 292.041 134.988 288.332 134.988C281.726 134.988 276.859 130.352 276.859 123.977C276.859 117.602 281.494 112.502 287.521 112.502C292.389 112.502 297.025 116.443 296.678 121.427H281.147ZM124.79 142.753C123.515 137.885 120.849 135.799 116.445 135.799C110.186 135.799 106.941 140.783 106.941 147.39C106.941 155.155 110.882 160.139 116.677 160.139C120.734 160.139 123.747 158.285 125.717 154.46L126.413 155.04C124.674 159.096 120.618 161.646 115.634 161.646C109.491 161.878 103 157.589 103 149.012C103 140.783 108.563 134.872 116.329 134.872C119.574 134.872 122.008 135.915 123.515 135.915C124.211 135.915 124.674 135.683 124.906 135.104H125.602V142.753H124.79ZM136.728 145.767C133.367 145.767 131.281 148.78 131.281 153.301C131.281 157.358 133.019 160.834 136.728 160.834C140.553 160.834 142.176 157.241 142.176 153.301C142.06 149.36 140.437 145.767 136.728 145.767ZM136.728 161.762C131.744 161.762 128.036 158.169 128.036 153.417C128.036 148.549 131.744 144.956 136.728 144.956C141.712 144.956 145.421 148.549 145.421 153.417C145.421 158.169 141.712 161.762 136.728 161.762ZM163.85 157.705C163.85 159.791 164.314 160.371 166.516 160.371V161.182H158.055V160.371C160.257 160.371 160.837 159.908 160.837 158.401V150.056C160.837 147.506 158.982 146.462 157.244 146.462C155.621 146.462 154.23 147.506 152.723 149.592V157.358C152.723 159.791 153.071 160.371 155.389 160.371V161.182H147.044V160.371C149.13 160.371 149.71 160.139 149.71 157.358V148.433C149.71 146.462 149.246 146.115 147.044 146.115V145.303L152.028 144.84H152.839V147.969C154.694 145.767 156.548 144.84 158.634 144.84C161.3 144.84 164.082 146.694 164.082 150.519L163.85 157.705ZM177.063 149.708C176.716 147.042 174.977 145.767 173.123 145.767C171.5 145.767 170.457 146.578 170.457 147.969C170.457 152.026 178.802 150.983 178.802 156.894C178.802 159.56 176.484 161.762 173.818 161.762C172.08 161.762 170.573 160.603 169.762 160.603C169.182 160.603 168.718 161.066 168.718 161.646H167.907V156.198H168.718C169.414 159.56 171.848 160.834 173.818 160.834C175.441 160.834 176.6 159.676 176.6 158.053C176.6 153.648 168.139 154.808 168.139 149.476C168.139 147.042 170.341 144.84 173.007 144.84C174.63 144.84 175.209 145.651 176.252 145.651C176.6 145.651 176.948 145.419 177.179 144.84H177.991V149.708H177.063ZM192.363 150.751C192.479 147.274 190.161 145.767 188.074 145.767C185.408 145.767 183.902 147.737 183.67 150.751H192.363ZM183.67 151.562C183.554 158.748 187.843 160.487 190.045 160.487C192.247 160.487 193.406 159.676 195.609 157.126V158.285C193.638 160.719 191.783 161.646 189.002 161.646C184.018 161.646 180.425 158.169 180.425 153.417C180.425 148.665 183.902 144.84 188.422 144.84C192.131 144.84 195.492 147.853 195.261 151.446L183.67 151.562ZM203.258 158.169C203.258 159.908 203.838 160.371 205.924 160.371V161.182H197.578V160.371C200.013 160.371 200.245 159.791 200.245 157.358V148.665C200.245 146.346 199.665 146.115 196.999 146.115V145.303L202.563 144.84H203.374V148.317C206.387 145.767 207.779 144.84 208.822 144.84C209.749 144.84 210.908 145.419 211.719 146.115L210.56 148.896C209.285 148.201 207.894 147.506 206.735 147.506C205.692 147.506 204.765 148.085 203.374 149.476L203.258 158.169ZM222.267 157.358L225.396 149.36C226.207 147.274 226.207 146.346 223.774 146.231V145.419H229.568V146.231C227.714 146.462 227.25 146.81 226.555 148.549L221.455 161.762H220.644L215.544 149.244C214.501 146.694 214.037 146.346 212.183 146.231V145.419H219.833V146.231C218.326 146.346 217.862 147.274 218.673 149.012L222.267 157.358ZM261.327 157.705C261.327 159.791 261.79 160.371 263.993 160.371V161.182H255.532V160.371C257.733 160.371 258.313 159.908 258.313 158.401V150.056C258.313 147.506 256.459 146.462 254.721 146.462C253.097 146.462 251.707 147.506 250.2 149.592V157.358C250.2 159.791 250.548 160.371 252.866 160.371V161.182H244.52V160.371C246.606 160.371 247.186 160.139 247.186 157.358V148.433C247.186 146.462 246.723 146.115 244.52 146.115V145.303L249.504 144.84H250.316V147.969C252.17 145.767 254.025 144.84 256.111 144.84C258.777 144.84 261.559 146.694 261.559 150.519L261.327 157.705ZM278.944 150.519H278.133C277.438 147.621 275.466 145.767 272.801 145.767C269.671 145.767 267.47 148.433 267.47 152.374C267.47 156.778 270.251 160.371 273.497 160.371C275.466 160.371 277.784 159.328 279.408 157.01V158.169C277.669 160.487 275.235 161.646 272.454 161.646C267.702 161.646 264.456 158.401 264.456 153.648C264.456 148.78 268.164 144.84 272.685 144.84C275.12 144.84 276.394 145.767 277.205 145.767C277.553 145.767 278.017 145.419 278.249 144.84H279.06L278.944 150.519ZM290.419 157.473L293.201 149.128C293.781 147.274 293.664 146.231 291.926 146.115V145.303H297.489V146.115C295.751 146.115 294.707 147.158 293.896 149.824L287.521 168.6C286.246 172.309 284.161 174.396 282.305 174.396C281.609 174.396 281.147 174.164 280.336 173.7L281.378 170.918C281.958 171.15 282.305 171.266 282.885 171.266C284.855 171.266 285.899 170.107 286.941 167.325L289.028 161.53L283.348 148.317C282.537 146.462 281.958 145.999 280.102 145.883V145.072H287.753V145.883C286.594 146.115 286.014 146.926 286.594 148.317L290.419 157.473ZM205.46 130.004C204.649 131.858 202.331 132.67 201.056 132.67C199.317 132.67 197.81 130.931 197.81 128.729C197.81 124.44 201.403 124.44 205.46 122.702V130.004ZM209.517 129.772V120.384C209.517 114.588 205.344 112.618 201.867 112.618C198.042 112.618 194.913 115.168 193.986 119.109L195.029 119.456C195.956 116.443 198.274 114.936 200.708 114.936C203.721 114.936 205.46 117.138 205.46 120.152V121.659C201.983 123.745 193.754 123.513 193.754 129.54C193.754 132.67 196.535 135.22 199.781 135.22C201.983 135.22 203.606 134.292 205.692 132.09V134.408H213.11V133.365C210.212 133.365 209.517 132.554 209.517 129.772ZM238.145 157.937C237.566 159.328 235.827 159.908 234.9 159.908C233.625 159.908 232.466 158.633 232.466 157.01C232.466 153.765 235.132 153.88 238.145 152.605V157.937ZM241.159 157.705V150.751C241.159 146.462 238.145 144.956 235.48 144.956C232.582 144.956 230.264 146.926 229.685 149.824L230.496 150.056C231.191 147.737 232.93 146.694 234.669 146.694C236.87 146.694 238.145 148.317 238.145 150.519V151.678C235.596 153.185 229.453 153.069 229.453 157.473C229.453 159.791 231.539 161.646 233.973 161.646C235.596 161.646 236.87 160.951 238.377 159.328V161.182H243.94V160.371C241.622 160.487 241.159 159.791 241.159 157.705Z" fill="#13191E"></path></svg> 