<?xml version="1.0" encoding="UTF-8"?> <svg xmlns="http://www.w3.org/2000/svg" width="480" height="271" viewBox="0 0 480 271" fill="none"><g clip-path="url(#clip0_2512_511)"><path d="M190.044 91.0279C184.57 96.0562 182.577 107.45 192.446 114.11L231.816 141.516L212.726 97.142C208.726 86.6706 197.783 84.3873 190.044 91.0279Z" fill="#13191E"></path><path d="M223.935 69.4533C217.536 69.5854 207.926 77.318 212.203 89.1254L231.946 136.37L238.883 86.6778C240.489 74.3304 231.28 68.6306 223.935 69.4533Z" fill="#13191E"></path><path d="M241.964 84.7827H245.698C245.698 84.7827 247.692 84.7827 247.963 85.7367C246.494 86.954 242.495 87.1065 243.026 93.609L249.301 136.363L268.91 88.9946C272.921 78.4182 264.502 69.5852 257.034 69.3151C256.685 69.2896 256.335 69.269 255.973 69.269C249.27 69.2688 241.588 74.2116 241.964 84.7827Z" fill="#13191E"></path><path d="M268.12 97.544L249.573 141.385L288.932 113.835C298.005 107.305 296.541 96.8663 291.463 91.7066C289.334 89.2782 285.425 87.4021 281.283 87.4021C276.391 87.4013 271.156 90.0342 268.12 97.544Z" fill="#13191E"></path><path d="M284.525 120.073L247.562 146.269H293.074C302.411 146.269 308.411 136.5 305.744 127.537C303.958 121.902 298.672 117.48 292.537 117.473C289.954 117.474 287.216 118.264 284.525 120.073Z" fill="#13191E"></path><path d="M188.984 146.269H233.824L196.852 120.073C188.312 114.505 178.707 117.763 175.24 127.003C172.301 137.581 179.639 146.269 188.984 146.269Z" fill="#13191E"></path><path d="M238.642 182.11H246.96C248.872 182.233 252.262 183.927 252.262 187.938C252.262 192.134 248.744 193.827 246.838 194.018H238.642V182.11ZM238.515 163.43H245.362C247.702 163.558 250.469 165.313 250.469 168.571C250.469 171.767 248.377 173.896 245.67 174.276H238.515V163.43ZM229.154 155.657V201.784H251.213C256.449 201.784 262.673 196.46 262.673 189.503C262.673 182.233 257.992 178.663 255.031 177.221C255.031 177.221 260.453 174.025 260.212 167.129C259.966 157.853 251.52 155.657 248.625 155.657H229.154Z" fill="#13191E"></path><path d="M195.32 201.784V175.216L223.912 203.539V155.656H214.304V181.545L185.706 153.78V201.784H195.32Z" fill="#13191E"></path><path d="M264.217 178.221C264.458 192.809 274.788 203.714 288.067 203.714C291.215 203.714 294.533 203.11 297.923 201.784V192.385C295.236 194.051 292.246 194.855 289.317 194.855C281.282 194.855 273.699 188.821 274.012 177.846C274.554 168.944 281.737 162.797 289.478 162.797C292.313 162.797 295.228 163.626 297.923 165.436V156.289C294.781 154.997 291.658 154.418 288.649 154.418C275.403 154.418 264.471 165.756 264.217 178.221Z" fill="#13191E"></path></g><defs><clipPath id="clip0_2512_511"><rect width="137" height="137" fill="white" transform="translate(172 66.7144)"></rect></clipPath></defs></svg> 