<?xml version="1.0" encoding="UTF-8"?> <svg xmlns="http://www.w3.org/2000/svg" width="174" height="55" viewBox="0 0 174 55" fill="none"><g clip-path="url(#clip0_101_82)"><path d="M30.7 17V26L23.4 17H17V37.5H23.8V28L31.4 37.5H37.5V17H30.7ZM30.7 6.8H47.7V47.7H26.5L23.8 44.3V47.7H6.8V6.8H28L30.7 10.2V6.8ZM0 54.4H54.4V0H0V54.4Z" fill="black"></path><path d="M72.7 16.8003C72.4 16.8003 72.3 17.0003 72.3 17.2003V28.2003H72.1L68.1 17.1003C68 16.9003 67.9 16.8003 67.6 16.8003H65C64.7 16.8003 64.6 17.0003 64.6 17.2003V37.3003C64.6 37.6003 64.8 37.7003 65 37.7003H67.7C68 37.7003 68.1 37.5003 68.1 37.3003V26.2003H68.2L72.2 37.4003C72.3 37.6003 72.4 37.7003 72.7 37.7003H75.3C75.6 37.7003 75.7 37.5003 75.7 37.3003V17.2003C75.7 16.9003 75.5 16.8003 75.3 16.8003H72.7Z" fill="black"></path><path d="M87.8 17.2003C87.8 16.9003 87.7 16.8003 87.4 16.8003H77.8C77.6 16.8003 77.4 17.0003 77.4 17.2003V37.3003C77.4 37.6003 77.6 37.7003 77.8 37.7003H87.4C87.7 37.7003 87.8 37.5003 87.8 37.3003V34.7003C87.8 34.4003 87.7 34.3003 87.4 34.3003H80.9V29.0003H85.9C86.2 29.0003 86.3 28.8003 86.3 28.6003V26.0003C86.3 25.7003 86.1 25.6003 85.9 25.6003H80.9V20.4003H87.4C87.7 20.4003 87.8 20.2003 87.8 20.0003V17.2003Z" fill="black"></path><path d="M89.8 16.8003C89.5 16.8003 89.4 17.0003 89.4 17.2003V19.8003C89.4 20.1003 89.6 20.2003 89.8 20.2003H92.8V37.2003C92.8 37.5003 93 37.6003 93.2 37.6003H96C96.3 37.6003 96.4 37.5003 96.4 37.2003V20.2003H99.4C99.7 20.2003 99.8 20.0003 99.8 19.8003V17.2003C99.8 16.9003 99.7 16.8003 99.4 16.8003H89.8V16.8003Z" fill="black"></path><path d="M115.7 16.8002C115.4 16.8002 115.2 17.0002 115.2 17.3002L114 29.5002H113.9L111.3 17.2002C111.2 16.9002 111 16.7002 110.7 16.7002H109.1C108.8 16.7002 108.6 16.9002 108.5 17.2002L106 29.5002H105.9L104.9 17.3002C104.9 17.0002 104.7 16.8002 104.4 16.8002H101.9C101.6 16.8002 101.4 17.0002 101.4 17.3002L103.5 37.2002C103.5 37.5002 103.7 37.7002 104 37.7002H106.6C106.9 37.7002 107.1 37.5002 107.2 37.3002L109.9 25.5002L112.6 37.3002C112.7 37.6002 112.9 37.8002 113.2 37.8002H115.8C116.1 37.8002 116.3 37.6002 116.3 37.3002L118.5 17.4002C118.5 17.1002 118.3 16.9002 118 16.9002H115.7V16.8002Z" fill="black"></path><path d="M126.9 33.3002C126.9 34.0002 126.5 34.3002 125.9 34.3002H124.4C123.7 34.3002 123.4 34.0002 123.4 33.3002V21.2002C123.4 20.5002 123.8 20.2002 124.4 20.2002H125.9C126.6 20.2002 126.9 20.6002 126.9 21.2002V33.3002ZM130.3 33.9002V20.5002C130.3 18.0002 129 16.7002 126.5 16.7002H123.6C121.1 16.7002 119.8 18.0002 119.8 20.5002V33.9002C119.8 36.4002 121.1 37.7002 123.6 37.7002H126.5C128.9 37.7002 130.3 36.4002 130.3 33.9002Z" fill="black"></path><path d="M139 26.2002C139 26.9002 138.6 27.2002 138 27.2002H135.4V20.2002H138C138.7 20.2002 139 20.6002 139 21.2002V26.2002ZM142.5 26.9002V20.5002C142.5 18.0002 141.2 16.7002 138.7 16.7002H132.1C131.8 16.7002 131.7 16.9002 131.7 17.1002V37.2002C131.7 37.5002 131.9 37.6002 132.1 37.6002H134.8C135.1 37.6002 135.2 37.4002 135.2 37.2002V30.6002H137L138.8 37.2002C138.9 37.4002 139 37.6002 139.2 37.6002H141.9C142.2 37.6002 142.3 37.4002 142.3 37.1002L140.5 30.3002C141.9 29.8002 142.5 28.7002 142.5 26.9002Z" fill="black"></path><path d="M155.2 37.7003C155.6 37.7003 155.8 37.4003 155.6 37.1003L150.9 26.5003L155.3 17.4003C155.5 17.0003 155.3 16.8003 154.9 16.8003H152.2C151.9 16.8003 151.7 16.9003 151.6 17.2003L147.6 25.4003V17.3003C147.6 17.0003 147.4 16.8003 147.1 16.8003H144.6C144.3 16.8003 144.1 17.0003 144.1 17.3003V37.2003C144.1 37.5003 144.3 37.7003 144.6 37.7003H147.1C147.4 37.7003 147.6 37.5003 147.6 37.2003V31.4003L148.6 29.5003L151.9 37.3003C152 37.6003 152.2 37.7003 152.5 37.7003H155.2V37.7003Z" fill="black"></path><path d="M170.2 16.8003C169.9 16.8003 169.8 17.0003 169.8 17.2003V28.2003H169.6L165.6 17.1003C165.5 16.9003 165.4 16.8003 165.1 16.8003H162.5C162.2 16.8003 162.1 17.0003 162.1 17.2003V37.3003C162.1 37.6003 162.3 37.7003 162.5 37.7003H165.2C165.5 37.7003 165.6 37.5003 165.6 37.3003V26.2003H165.7L169.7 37.4003C169.8 37.6003 169.9 37.7003 170.2 37.7003H172.8C173.1 37.7003 173.2 37.5003 173.2 37.3003V17.2003C173.2 16.9003 173 16.8003 172.8 16.8003H170.2Z" fill="black"></path></g><defs><clipPath id="clip0_101_82"><rect width="173.3" height="54.4" fill="white"></rect></clipPath></defs></svg> 