<?xml version="1.0" encoding="UTF-8"?> <svg xmlns="http://www.w3.org/2000/svg" width="120" height="34" viewBox="0 0 120 34" fill="none"><path d="M12.9492 26.2118C12.9492 26.1299 12.9492 26.0538 12.9192 25.9661C12.7853 25.015 12.4311 24.1064 11.8835 23.3094C11.5348 22.873 11.1327 22.4799 10.6862 22.1391C10.5545 22.0396 10.4407 22.0864 10.4348 22.2444L10.321 23.8887C10.321 24.0467 10.1294 24.0526 10.0815 23.8887L9.33919 21.5773C9.30494 21.4935 9.25395 21.4172 9.18919 21.3529C9.12443 21.2886 9.0472 21.2376 8.96203 21.2028C8.46498 21.0351 7.95696 20.9002 7.44141 20.799C6.75893 20.682 5.77112 20.6176 5.77112 20.6176C5.6035 20.6176 5.54962 20.7171 5.6454 20.8459L6.66314 22.654C6.75893 22.7886 6.66314 22.9173 6.51946 22.812L4.30438 21.0565C4.09793 20.9248 3.86594 20.8361 3.62287 20.7958C3.3798 20.7555 3.13085 20.7646 2.89153 20.8225C2.40062 20.8985 1.69419 21.0448 1.69419 21.0448C1.61712 21.0615 1.54898 21.1052 1.50261 21.1677C1.45452 21.2274 1.43103 21.3026 1.43676 21.3784C1.43676 21.3784 1.49064 22.0806 1.55051 22.5487C1.5576 22.7872 1.61435 23.0217 1.71728 23.238C1.82021 23.4543 1.96717 23.6479 2.14918 23.8068L4.45405 25.416C4.59773 25.5096 4.49596 25.6501 4.3403 25.5915L2.28687 25.141C2.13122 25.0825 2.04142 25.141 2.08931 25.3165C2.08931 25.3165 2.43055 26.2294 2.72989 26.8321C2.98346 27.3043 3.27157 27.758 3.59197 28.1897C3.649 28.2596 3.71962 28.3179 3.79976 28.361C3.87989 28.4042 3.96797 28.4315 4.05893 28.4413L6.53742 28.4998C6.69906 28.4998 6.74097 28.6812 6.5913 28.728L5.00483 29.3132C4.84917 29.36 4.8372 29.477 4.96891 29.5765C5.43281 29.9003 5.93542 30.1676 6.46558 30.3723C7.40176 30.6691 8.39526 30.7512 9.36912 30.6123C10.094 30.5123 10.8075 30.3457 11.5004 30.1149C11.4738 29.9209 11.4598 29.7254 11.4585 29.5297C11.4607 28.9032 11.5965 28.284 11.8573 27.7118C12.1181 27.1395 12.4981 26.6266 12.9731 26.206" fill="#5BA745"></path><path d="M30.6342 21.4072C30.6373 21.3317 30.614 21.2575 30.5683 21.1966C30.5219 21.1341 30.4538 21.0904 30.3767 21.0737C30.3767 21.0737 29.6703 20.9274 29.1794 20.8572C28.9414 20.7993 28.6938 20.7897 28.4518 20.8289C28.2098 20.8682 27.9787 20.9555 27.7725 21.0854L25.5575 22.8409C25.4258 22.9462 25.318 22.8409 25.4138 22.6829L26.4255 20.8747C26.5273 20.746 26.4734 20.6407 26.3058 20.6465C26.3058 20.6465 25.318 20.7109 24.6355 20.8279C24.12 20.929 23.6119 21.0639 23.1149 21.2317C23.0297 21.2665 22.9525 21.3175 22.8877 21.3818C22.823 21.4461 22.772 21.5224 22.7377 21.6062L21.9954 23.9117C21.9475 24.0639 21.7619 24.058 21.7559 23.9117L21.6362 22.2674C21.6362 22.1094 21.5224 22.0626 21.3907 22.1621C20.9444 22.5031 20.5423 22.8961 20.1934 23.3324C19.6468 24.1212 19.2925 25.0221 19.1577 25.9656C19.1577 26.0534 19.1577 26.1295 19.1577 26.2114C19.6331 26.6314 20.013 27.1443 20.2728 27.7168C20.5327 28.2893 20.6668 28.9088 20.6664 29.5351C20.665 29.7309 20.651 29.9263 20.6244 30.1203C21.3196 30.3504 22.0351 30.5169 22.7617 30.6177C23.7356 30.7564 24.729 30.6743 25.6652 30.3778C26.1954 30.173 26.698 29.9058 27.1619 29.582C27.2936 29.4825 27.2816 29.3654 27.126 29.3186L25.5395 28.7335C25.3898 28.6867 25.4317 28.5111 25.5934 28.5053L28.0659 28.4467C28.1582 28.439 28.2479 28.4127 28.3293 28.3694C28.4107 28.3261 28.4821 28.2667 28.5388 28.1951C28.8341 27.7742 29.1001 27.3343 29.3351 26.8785C29.6404 26.2933 29.9816 25.3629 29.9816 25.3629C30.0295 25.2108 29.9397 25.1289 29.7841 25.1874L27.7306 25.638C27.569 25.6965 27.4732 25.556 27.6109 25.4624L29.9337 23.8532C30.1157 23.6943 30.2627 23.5007 30.3656 23.2844C30.4686 23.0681 30.5253 22.8336 30.5324 22.5951C30.5923 22.1094 30.6461 21.4248 30.6461 21.4248" fill="#5BA745"></path><path d="M24.171 13.7947C24.171 13.5431 24.0033 13.4495 23.7759 13.5899L21.3812 14.8656C21.1597 15.006 21.1118 14.7368 21.2734 14.532L23.5603 11.5477C23.6441 11.4308 23.6999 11.2971 23.7237 11.1563C23.7476 11.0155 23.7388 10.8713 23.698 10.7343C23.3987 9.92999 23.0406 9.14775 22.6264 8.39366C22.2086 7.73122 21.7445 7.09774 21.2375 6.49773C21.0759 6.29877 20.8783 6.33388 20.7945 6.5738L19.675 9.30652C19.5912 9.54643 19.3816 9.54058 19.3876 9.30652L19.5193 5.01726C19.5169 4.71269 19.3972 4.42019 19.1841 4.19803C19.1841 4.19803 18.5195 3.54264 17.9867 3.06281C17.4539 2.58297 16.4601 1.82226 16.4601 1.82226C16.3535 1.73768 16.2203 1.69153 16.083 1.69153C15.9456 1.69153 15.8125 1.73768 15.7058 1.82226C15.7058 1.82226 14.7659 2.54201 14.1553 3.06281C13.5446 3.5836 12.9579 4.19217 12.9579 4.19217C12.742 4.40515 12.6141 4.68853 12.5987 4.988L12.7364 9.27726C12.7364 9.53473 12.5329 9.54058 12.4431 9.27726L11.3235 6.5738C11.2457 6.33388 11.0422 6.29877 10.8805 6.50358C10.345 7.14026 9.85871 7.81507 9.42577 8.5224C9.03184 9.23448 8.69169 9.97376 8.40803 10.7343C8.36952 10.8693 8.36134 11.0109 8.38408 11.1493C8.40681 11.2876 8.45992 11.4196 8.53974 11.536L10.8386 14.532C11.0003 14.7368 10.9524 15.006 10.7249 14.8656L8.3302 13.5899C8.1087 13.4495 7.92311 13.5431 7.9291 13.7947C7.94799 14.6227 8.08501 15.444 8.33619 16.2349C8.90209 17.6657 9.80686 18.9451 10.9763 19.9682C12.5144 21.52 13.7607 23.3245 14.6581 25.2991C15.5708 25.0105 16.5532 25.0105 17.4659 25.2991C18.3603 23.3303 19.598 21.5285 21.1238 19.9741C22.1946 19.0358 23.0478 17.8846 23.6262 16.5977C23.9547 15.6985 24.1385 14.7549 24.171 13.8006" fill="#5BA745"></path><path d="M19.0436 29.5353C19.0436 30.114 18.8681 30.6797 18.5391 31.1608C18.2102 31.642 17.7427 32.017 17.1958 32.2384C16.6488 32.4599 16.047 32.5178 15.4663 32.4049C14.8857 32.292 14.3523 32.0134 13.9337 31.6042C13.515 31.195 13.23 30.6737 13.1145 30.1061C12.999 29.5386 13.0582 28.9503 13.2848 28.4157C13.5114 27.881 13.895 27.4241 14.3873 27.1026C14.8795 26.7811 15.4583 26.6095 16.0503 26.6095C16.8442 26.6095 17.6055 26.9178 18.1669 27.4664C18.7282 28.0151 19.0436 28.7593 19.0436 29.5353Z" fill="#5BA745"></path><path d="M99.2711 25.2989H104.767V24.5616L104.013 24.3275C103.582 24.1988 103.534 24.0934 103.516 23.6077C103.516 23.0226 103.516 21.94 103.516 20.8165V9.01373H103.234C101.819 9.01841 100.414 9.25578 99.0795 9.71593V10.3011L99.9476 10.4942C100.13 10.5175 100.296 10.6108 100.408 10.7534C100.52 10.8961 100.57 11.0764 100.546 11.2549C100.546 11.7406 100.546 12.6301 100.546 13.6424V20.8165C100.546 21.94 100.546 23.0343 100.546 23.6077C100.546 24.0934 100.504 24.1929 100.073 24.3275L99.2891 24.5616L99.2711 25.2989Z" fill="#13191E"></path><path d="M69.852 17.4752C70.1889 16.9613 70.3829 16.3703 70.4148 15.7607C70.4346 15.5789 70.4133 15.395 70.3524 15.2222C70.2914 15.0493 70.1923 14.8917 70.062 14.7604C69.9318 14.6292 69.7736 14.5276 69.5986 14.4628C69.4237 14.398 69.2363 14.3717 69.0498 14.3856C68.1398 14.3856 67.2119 14.9181 66.5653 16.7262V14.5143H66.3438C64.9366 14.5179 63.5401 14.7534 62.213 15.2107V15.8251L63.0571 16.0357C63.1471 16.0443 63.2344 16.0707 63.3137 16.1131C63.3929 16.1555 63.4627 16.2131 63.5186 16.2826C63.5745 16.352 63.6155 16.4317 63.6391 16.517C63.6626 16.6023 63.6683 16.6914 63.6558 16.7789C63.6558 17.2646 63.6558 18.3822 63.6558 19.418V20.9219C63.6558 22.022 63.6558 23.0343 63.6558 23.6312C63.6558 24.0935 63.6139 24.2163 63.1829 24.3275L62.4046 24.5791V25.2989H68.074V24.5616L67.164 24.3041C66.709 24.1988 66.6851 24.0935 66.6671 23.6312C66.6671 23.046 66.6671 22.022 66.6671 20.9219V17.2821C67.0114 17.0279 67.433 16.894 67.8644 16.9018C68.5655 16.9477 69.247 17.1478 69.858 17.4869L69.852 17.4752ZM79.7181 17.8439C79.8127 16.7738 79.7906 15.6969 79.6522 14.6313C78.4848 14.5904 77.5808 14.4207 76.5451 14.4207C73.6416 14.4207 72.1928 16.0708 72.1928 17.8907C72.1928 19.061 72.7556 20.2314 74.6833 21.0213L75.3718 21.273C77.1678 21.9518 77.5629 22.4433 77.5629 23.0694C77.5629 23.6955 77.0001 24.3392 75.7669 24.3392C75.2747 24.3563 74.7908 24.2117 74.3926 23.9285C73.9943 23.6453 73.7046 23.2398 73.5698 22.7768L73.3961 21.9049H72.0791C71.9266 22.9922 71.9266 24.0946 72.0791 25.1819C73.2536 25.3518 74.4367 25.4592 75.6232 25.5037C78.9338 25.5037 80.3766 23.4498 80.3766 21.9049C80.3766 20.7873 79.5864 19.6462 77.3833 18.7743L76.6948 18.5227C75.0245 17.8907 74.6174 17.3524 74.6174 16.6853C74.6174 16.0182 75.2161 15.5618 76.3296 15.5442C77.4431 15.5266 77.5569 16.3927 77.7964 17.2119L77.97 17.8439H79.7181Z" fill="#13191E"></path><path d="M56.2743 23.2508C55.8642 23.578 55.3548 23.7632 54.8255 23.7774C54.375 23.7791 53.9403 23.6151 53.6076 23.3181C53.2749 23.0212 53.0686 22.6128 53.0295 22.1741C53.0295 21.3314 53.9395 20.2606 56.2564 19.9855L56.2743 23.2508ZM60.7104 24.8775L60.9679 24.2924C59.3215 23.953 59.13 23.5492 59.13 21.8347V18.1306C59.13 15.8484 58.1122 14.3855 55.2147 14.3855C53.8472 14.33 52.497 14.7009 51.3593 15.4447C51.1269 15.5949 50.9363 15.7992 50.8046 16.0392C50.6729 16.2792 50.6043 16.5475 50.6049 16.8198C50.6251 17.3081 50.808 17.7767 51.1258 18.154C52.7901 16.4804 53.8078 16.0767 54.6699 16.0767C55.9031 16.0767 56.2623 16.9954 56.2743 18.7977C52.2273 19.3302 50.3655 20.8106 50.3655 22.5837C50.3651 23.3437 50.6673 24.074 51.2081 24.6201C51.7489 25.1662 52.4859 25.4852 53.263 25.5095C53.8976 25.5178 54.5238 25.3666 55.0814 25.0705C55.6391 24.7744 56.1096 24.3432 56.4479 23.8184C56.5737 24.2998 56.8607 24.7261 57.2633 25.0295C57.6658 25.3328 58.1607 25.4956 58.669 25.4919C59.3892 25.4807 60.0927 25.2785 60.7045 24.9068" fill="#13191E"></path><path d="M118.297 15.3629V14.5788H113.507V15.3629L114.346 15.5911C114.974 15.7608 115.064 16.0359 114.89 16.6269C114.425 18.549 113.843 20.4424 113.148 22.2971L110.251 16.3518C110.035 15.913 110.053 15.6789 110.664 15.5268L111.46 15.3629V14.5788H105.773V15.4039L106.162 15.5092C106.527 15.6145 106.593 15.7608 106.832 16.229L111.622 25.5916L111.34 26.1416C110.742 27.2593 109.718 28.0025 106.796 28.8275C107.144 30.1559 107.766 30.7703 108.527 30.7703H108.574C109.7 30.7703 111.101 29.2898 112.119 27.5168C113.531 25.0708 114.819 22.2152 116.908 16.5801C117.213 15.755 117.279 15.6087 117.842 15.48L118.297 15.3629Z" fill="#13191E"></path><path d="M95.7506 25.4451C96.1295 25.4451 96.4999 25.3353 96.815 25.1295C97.13 24.9238 97.3756 24.6313 97.5206 24.2892C97.6656 23.947 97.7035 23.5705 97.6296 23.2073C97.5557 22.8441 97.3732 22.5104 97.1053 22.2485C96.8374 21.9866 96.496 21.8083 96.1244 21.7361C95.7528 21.6638 95.3676 21.7009 95.0175 21.8426C94.6675 21.9843 94.3683 22.2243 94.1578 22.5323C93.9473 22.8402 93.8349 23.2022 93.8349 23.5726C93.8349 24.0692 94.0367 24.5455 94.396 24.8967C94.7553 25.2478 95.2426 25.4451 95.7506 25.4451Z" fill="#5BA745"></path><path d="M48.4927 14.8535C48.499 14.0087 48.2296 13.1838 47.7236 12.4988C47.2177 11.8137 46.5014 11.3042 45.679 11.0441C44.6193 10.6872 43.5417 10.5584 41.183 10.5584H35.7291V11.3835L36.3278 11.5123C37.5251 11.7639 37.603 11.8048 37.6269 12.273C37.6508 12.7411 37.6269 13.6247 37.6269 14.6136V21.4893C37.6269 22.5075 37.6269 23.3735 37.6269 23.8592C37.6269 24.3449 37.5191 24.3683 36.3278 24.6199L35.7291 24.7487V25.5738H42.9131V24.7487L42.2666 24.6199C41.0692 24.3683 40.9914 24.3274 40.9675 23.8592C40.9435 23.3911 40.9675 22.5075 40.9675 21.4893V11.8692C41.2393 11.8321 41.5132 11.8106 41.7876 11.8048C42.4804 11.7768 43.1636 11.9702 43.7339 12.3555C44.3043 12.7409 44.7307 13.2973 44.9486 13.9407C45.1459 14.4324 45.2415 14.9575 45.23 15.4855C45.23 16.5856 44.9067 17.6214 44.0326 18.1714C43.3918 18.5652 42.6379 18.7459 41.8834 18.6864V19.5466C45.7149 20.2371 48.5107 18.1246 48.5107 14.8653" fill="#13191E"></path><path d="M87.5377 14.3679C86.8608 14.3423 86.1856 14.4509 85.5528 14.6873C84.9201 14.9236 84.3428 15.2828 83.8559 15.7431C83.3145 16.2755 82.8898 16.9102 82.6078 17.6085C82.3258 18.3067 82.1923 19.0538 82.2155 19.8041C82.2155 22.9523 84.0534 25.5095 87.6035 25.5095C88.4206 25.5107 89.2282 25.3393 89.9711 25.007C90.7141 24.6747 91.3748 24.1894 91.9079 23.5843L92.0397 22.806C91.1231 23.2714 90.1089 23.5237 89.0762 23.5433C88.2402 23.5719 87.4164 23.3404 86.7235 22.8821C86.4431 22.7013 86.1995 22.4711 86.0051 22.2033L85.8854 22.0394C85.6028 21.6221 85.4 21.1582 85.2867 20.6702C85.2182 20.4201 85.1662 20.166 85.131 19.9094C85.033 19.2192 85.0472 18.5181 85.173 17.8321C85.2416 17.2409 85.5065 16.688 85.9273 16.258C86.1757 16.0203 86.4979 15.8701 86.8432 15.8308H86.8971C87.1922 15.8012 87.4899 15.8497 87.7592 15.9713L87.831 16.0005C87.9034 16.0372 87.9734 16.0782 88.0406 16.1234C88.2182 16.2463 88.3722 16.3988 88.4956 16.574L88.5554 16.6618C88.5913 16.7203 88.6273 16.7671 88.6572 16.8256C88.9611 17.4731 89.079 18.1891 88.9984 18.8971C88.9955 18.9283 88.9955 18.9596 88.9984 18.9907L86.041 19.178C86.0375 19.5729 86.0878 19.9664 86.1907 20.3483H91.9618C92.6084 16.1702 90.1658 14.4147 87.5916 14.4147" fill="#13191E"></path></svg> 