<?xml version="1.0" encoding="UTF-8"?> <svg xmlns="http://www.w3.org/2000/svg" width="480" height="271" viewBox="0 0 480 271" fill="none"><g clip-path="url(#clip0_2515_2221)"><path d="M93.4084 136.056C91.2103 136.056 90.1111 134.316 89.4701 132.759C88.829 131.202 89.0122 129.92 87.5009 129.92C85.9439 129.92 82.2346 134.545 81.5476 140.681C81.5476 141.323 81.3187 145.536 81.3187 147.734V154.328C81.3187 156.755 81.0897 159.823 81.5476 161.564C82.0056 163.991 82.6468 164.22 84.3869 165.09C85.0281 165.319 85.257 165.548 85.715 165.548V165.777H69V165.548C69.4579 165.548 69.6411 165.319 70.328 165.09C72.2972 164.22 72.7551 163.991 73.1673 161.564C73.6252 159.823 73.3963 156.709 73.3963 154.328V138.712V131.431C73.1673 129.691 72.7551 129.233 71.8393 128.592C70.9692 127.951 70.0991 127.951 69.4121 127.722V127.493H80.6318C81.0897 127.493 81.0897 127.722 81.0897 127.951V138.071C82.1888 133.675 84.3869 130.835 85.715 129.508C87.043 128.179 89.2411 126.668 92.0803 126.668C93.4084 126.668 94.9196 127.126 96.0186 128.225C96.6598 128.866 97.3468 130.194 97.3468 131.98C97.5757 134.087 96.2475 136.056 93.4084 136.056ZM128.808 143.521H105.269C105.269 154.053 106.597 159.365 109.207 162.434C111.177 164.861 113.146 165.273 115.802 165.273C123.037 165.273 126.793 159.32 128.349 153.183H128.808C127.251 160.877 122.213 166.143 114.52 166.143C110.123 166.143 105.269 165.044 101.972 161.518C98.4459 157.58 97.1178 152.954 97.1178 146.589C97.1178 134.499 103.941 126.577 113.604 126.577C124.594 126.577 129.449 134.041 129.449 141.093C128.991 141.78 128.991 142.65 128.808 143.521ZM118.229 128.821C116.672 127.264 115.39 126.851 113.192 126.851C111.222 126.851 109.894 127.309 108.566 128.821C106.597 131.019 105.498 135.873 105.269 142.879H118.229C120.885 142.879 121.068 142.879 121.068 138.941C120.885 133.629 119.557 130.103 118.229 128.821ZM155.597 166.189C153.399 166.189 151.659 166.189 150.743 165.548C149.644 164.906 148.774 163.121 149.003 159.823C148.133 162.892 145.065 166.189 139.34 166.189C134.074 166.189 129.449 163.121 129.449 156.755C129.449 154.328 130.09 152.359 131.647 151.031C134.486 148.375 138.241 148.192 141.996 146.635C147.034 144.665 149.461 142.238 149.461 139.582V132.759C149.461 127.905 148.133 127.034 144.423 127.034C142.454 127.034 141.355 127.493 140.485 128.363C139.615 129.233 139.157 131.202 139.157 133.858C139.157 136.697 137.6 137.796 135.219 137.796C133.25 137.796 131.693 136.697 131.693 134.499C131.693 132.942 132.15 131.843 133.25 130.744C135.219 128.317 140.714 126.806 144.469 126.806C151.064 126.806 157.429 129.233 157.429 135.598C157.429 138.437 157.2 152.725 157.2 158.037C157.2 161.976 157.2 163.304 158.07 164.174C158.574 164.723 159.307 165.044 160.039 165.044C160.91 165.044 161.596 164.815 162.467 164.403V164.632C161.322 165.273 158.482 166.189 155.597 166.189ZM143.324 146.589C140.897 147.917 139.798 148.787 138.928 150.115C138.058 151.672 137.371 154.053 137.371 156.48C137.371 161.518 139.34 164.403 142.866 164.403C143.507 164.403 144.423 164.403 145.065 163.945C147.034 163.075 148.82 160.007 148.82 157.121V142.193C147.675 144.207 145.706 145.306 143.324 146.589ZM161.322 165.273C161.78 165.044 162.42 164.815 162.878 164.632C164.435 163.991 165.076 163.533 165.534 161.106C165.992 159.365 165.992 156.48 165.992 153.87V114.945C165.992 113.388 165.992 109.221 165.763 107.709C165.534 105.969 165.122 105.282 164.206 104.87C163.337 104.229 162.467 104.229 161.78 104H172.953C173.411 104 173.411 104 173.411 104.641V154.328C173.411 156.755 173.411 159.594 173.64 161.564C174.098 163.991 174.739 164.403 176.709 165.09C177.167 165.319 177.35 165.319 177.808 165.548V165.777H161.322V165.273Z" fill="#13191E"></path><path d="M201.986 160.465C200.658 163.304 196.72 166.189 192.736 166.189C189.209 166.189 187.011 165.731 185.042 163.762C183.486 162.205 182.615 160.465 182.615 157.167C182.615 155.427 182.844 132.118 183.073 127.722C181.745 127.722 179.135 127.722 177.807 127.493V127.264C183.302 125.936 186.828 123.096 190.583 111.007H190.812V127.035H199.605V127.493H190.812L190.354 159.595C190.354 162.892 191.224 164.861 194.979 164.861C198.048 164.861 200.475 162.434 201.574 160.236L201.986 160.465ZM217.144 166.189C208.351 166.189 198.918 158.496 198.918 146.406C198.918 134.316 208.351 126.623 217.144 126.623C225.936 126.623 235.599 134.087 235.599 146.406C235.645 158.496 226.165 166.189 217.144 166.189ZM223.097 129.462C221.357 127.264 219.159 126.806 217.144 126.806C215.129 126.806 212.977 127.447 211.42 129.233C208.764 132.072 207.252 139.354 207.252 146.177C207.252 153.229 208.809 160.007 211.42 163.121C213.16 165.319 215.358 165.777 217.373 165.777C219.342 165.777 221.311 165.319 223.326 163.121C225.753 160.282 227.493 153.229 227.493 146.177C227.265 139.354 225.753 132.53 223.097 129.462ZM258.496 136.056C256.298 136.056 255.199 134.316 254.558 132.759C253.917 131.202 254.1 129.92 252.588 129.92C251.033 129.92 247.323 134.545 246.636 140.682C246.636 141.323 246.407 145.536 246.407 147.734V154.328C246.407 156.755 246.178 159.824 246.636 161.564C247.093 163.991 247.735 164.22 249.475 165.09C250.115 165.319 250.345 165.548 250.803 165.548V165.777H234.317V165.548C234.775 165.548 234.958 165.319 235.645 165.09C237.614 164.22 238.072 163.991 238.484 161.564C238.942 159.824 238.713 156.71 238.713 154.328V138.712V131.431C238.484 129.691 238.072 129.233 237.156 128.592C236.286 127.951 235.416 127.951 234.729 127.722V127.493H245.95C246.407 127.493 246.407 127.722 246.407 127.951V138.071C247.505 133.675 249.703 130.836 251.033 129.508C252.36 128.18 254.558 126.668 257.397 126.668C258.724 126.668 260.237 127.126 261.336 128.226C261.976 128.867 262.664 130.195 262.664 131.981C262.664 134.087 261.336 136.056 258.496 136.056ZM262.664 166.83C260.008 166.83 257.808 164.861 257.808 161.976C257.808 159.091 260.008 157.122 262.664 157.122C265.321 157.122 267.517 158.862 267.517 161.976C267.289 164.861 265.321 166.83 262.664 166.83ZM287.943 166.189C283.087 166.189 278.693 164.22 275.852 161.335C272.098 157.58 270.815 152.313 270.815 145.948C270.815 133.858 280.066 126.623 288.171 126.623C293.665 126.623 297.833 128.592 299.391 130.561C300.718 132.118 301.359 133.4 301.359 134.728C301.359 137.568 299.391 138.667 297.605 138.667C294.537 138.667 293.437 136.697 293.208 133.812C292.566 128.775 291.651 126.989 287.943 126.989C286.386 126.989 284.003 127.63 282.676 129.187C280.707 131.614 279.608 137.339 279.608 144.345C279.608 153.138 280.707 158.862 282.904 162.159C284.645 164.586 286.843 165.227 288.858 165.227C297.01 165.227 300.49 158.175 301.817 152.909H302.275C300.032 160.465 295.407 166.189 287.943 166.189ZM320.044 166.189C311.251 166.189 301.817 158.496 301.817 146.406C301.817 134.316 311.251 126.623 320.044 126.623C328.837 126.623 338.5 134.087 338.5 146.406C338.5 158.496 328.837 166.189 320.044 166.189ZM325.997 129.462C324.257 127.264 322.059 126.806 320.044 126.806C318.075 126.806 315.877 127.447 314.32 129.233C311.663 132.072 310.152 139.354 310.152 146.177C310.152 153.229 311.709 160.007 314.32 163.121C316.06 165.319 318.258 165.777 320.272 165.777C322.243 165.777 324.212 165.319 326.227 163.121C328.654 160.282 330.394 153.229 330.394 146.177C329.936 139.354 328.379 132.53 325.997 129.462ZM382.462 165.273C382.92 165.044 383.103 164.815 383.789 164.632C385.529 163.991 386.217 163.533 386.629 161.106C387.087 159.366 387.087 156.481 387.087 153.87V138.255C387.087 134.087 386.629 132.118 385.759 130.79C384.66 129.233 383.103 128.363 380.905 128.363C376.967 128.363 372.342 131.889 371.654 138.712C371.654 140.04 371.426 141.552 371.426 143.338V153.687C371.426 156.114 371.196 158.954 371.654 160.923C372.112 163.35 372.753 163.762 374.493 164.449C375.136 164.678 375.364 164.907 375.822 164.907V165.136H359.107V164.861C359.565 164.861 359.748 164.632 360.434 164.403C362.175 163.762 362.861 163.304 363.274 160.877C363.732 159.137 363.732 156.252 363.732 153.641V138.026C363.732 133.858 363.274 131.889 362.175 130.561C361.076 129.004 359.518 128.134 357.32 128.134C352.924 128.134 348.757 131.889 348.071 138.667C347.841 140.865 347.841 143.521 347.841 146.131V153.412C347.841 155.84 347.613 158.908 348.071 160.648C348.529 163.075 349.168 163.304 351.139 164.174L352.466 164.632V164.861H335.752V164.632C336.21 164.632 336.393 164.403 337.079 164.174C339.048 163.533 339.506 163.075 339.92 160.648C340.378 158.908 340.378 155.794 340.378 153.412V138.026C340.378 136.468 340.378 132.072 340.148 130.79C339.92 129.05 339.506 128.592 338.59 127.951C337.721 127.31 336.851 127.31 336.164 127.081V126.852H347.383C347.841 126.852 347.841 126.852 347.841 127.31L347.613 136.102C348.71 132.164 350.681 129.966 352.65 128.409C354.207 127.31 357.045 125.982 360.114 125.982C364.053 125.982 366.937 127.081 368.449 129.05C369.318 130.149 370.875 132.576 370.875 136.285C371.974 132.118 374.173 129.691 376.142 128.363C378.111 126.806 381.179 125.936 383.378 125.936C388.233 125.936 390.613 127.493 391.941 129.233C393.04 130.561 394.139 132.988 394.139 137.568V153.412C394.139 155.84 394.139 158.679 394.597 160.648C395.055 163.075 395.696 163.487 397.437 164.174L398.765 164.632V164.861H382.279L382.462 165.273ZM405.358 134.499C404.489 134.499 403.618 134.27 402.702 134.041C401.833 133.584 401.147 133.171 400.733 132.713C400.092 132.072 399.634 131.385 399.406 130.744C398.948 129.874 398.948 129.187 398.948 128.088C398.948 127.218 399.176 126.348 399.406 125.432C399.864 124.562 400.275 123.875 400.733 123.234C401.375 122.593 402.063 122.135 402.932 121.906C403.801 121.448 404.672 121.448 405.588 121.448C406.504 121.448 407.328 121.677 408.243 121.906C409.114 122.364 409.801 122.776 410.214 123.234C410.853 123.875 411.311 124.562 411.541 125.203C411.999 126.073 411.999 126.76 411.999 127.859C411.999 128.729 411.769 129.599 411.541 130.515C411.083 131.385 410.672 132.072 410.214 132.713C409.756 133.355 408.885 133.812 408.015 134.041C407.1 134.499 406.23 134.499 405.358 134.499ZM405.358 133.858C406.23 133.858 406.916 133.629 407.786 133.4C408.427 133.171 409.114 132.759 409.526 132.072C409.984 131.614 410.395 130.973 410.853 130.332C411.083 129.691 411.311 128.775 411.311 128.134C411.311 127.264 411.083 126.577 410.853 125.936C410.625 125.203 410.167 124.608 409.526 124.196C409.068 123.738 408.427 123.326 407.786 122.867C407.146 122.639 406.23 122.41 405.588 122.41C404.717 122.41 404.031 122.639 403.16 122.867C402.428 123.096 401.833 123.555 401.421 124.196C400.963 124.654 400.55 125.295 400.092 125.936C399.864 126.577 399.634 127.493 399.634 128.134C399.634 129.004 399.864 129.691 400.092 130.332C400.322 130.973 400.733 131.66 401.421 132.072C401.879 132.53 402.521 132.942 403.16 133.4C403.801 133.629 404.672 133.858 405.358 133.858ZM402.702 124.196H405.77C406.642 124.196 407.511 124.425 407.969 124.837C408.427 125.295 408.61 125.707 408.61 126.394C408.61 127.035 408.382 127.493 408.152 127.722C407.922 128.18 407.511 128.363 407.053 128.592L408.793 131.019H407.053L405.496 128.821H404.396V131.019H402.841V124.196H402.702ZM405.77 127.493C406.23 127.493 406.412 127.493 406.642 127.264C406.87 127.035 406.87 126.806 406.87 126.623C406.87 126.165 406.87 125.982 406.642 125.982C406.412 125.753 406.184 125.753 405.77 125.753H404.215V127.722H405.77V127.493Z" fill="#13191E"></path></g><defs><clipPath id="clip0_2515_2221"><rect width="343" height="63" fill="white" transform="translate(69 104)"></rect></clipPath></defs></svg> 