<?xml version="1.0" encoding="UTF-8"?> <svg xmlns="http://www.w3.org/2000/svg" width="140" height="70" viewBox="0 0 140 70" fill="none"><path d="M42 0H140V64C140 67.3137 137.314 70 134 70H48C44.6863 70 42 67.3137 42 64V0Z" fill="#FF7B28"></path><circle cx="50" cy="8" r="2" fill="#13191E"></circle><circle cx="56" cy="8" r="2" fill="#13191E"></circle><circle cx="62" cy="8" r="2" fill="#13191E"></circle><rect x="111" y="17" width="20" height="44" rx="1" stroke="black" stroke-width="2"></rect><rect x="51" y="45" width="54" height="16" rx="1" stroke="black" stroke-width="2"></rect><rect x="51" y="17" width="54" height="16" rx="1" stroke="black" stroke-width="2"></rect><line x1="7" y1="39" x2="110" y2="39" stroke="black" stroke-width="2"></line><path d="M51 26H38C32.3822 26 29.5732 26 27.5554 27.3482C26.6819 27.9319 25.9319 28.6819 25.3482 29.5554C24 31.5732 24 34.3822 24 40V40C24 45.6178 24 48.4268 25.3482 50.4446C25.9319 51.3181 26.6819 52.0681 27.5554 52.6518C29.5732 54 32.3822 54 38 54H51" stroke="black" stroke-width="2"></path><path d="M14 39C14 42.2498 11.156 45 7.5 45C3.84405 45 1 42.2498 1 39C1 35.7502 3.84405 33 7.5 33C11.156 33 14 35.7502 14 39Z" fill="white" stroke="black" stroke-width="2"></path></svg> 