<?xml version="1.0" encoding="UTF-8"?> <svg xmlns="http://www.w3.org/2000/svg" width="480" height="271" viewBox="0 0 480 271" fill="none"><g clip-path="url(#clip0_2515_2084)"><path fill-rule="evenodd" clip-rule="evenodd" d="M243.748 133.401H237.802V129.411H244.341C244.936 129.411 245.769 129.473 246.361 130.057C246.776 130.408 246.957 130.935 246.957 131.463C246.957 133.401 244.936 133.401 243.748 133.401V133.401ZM249.75 137.565C250.702 137.328 252.188 137.039 253.436 135.57C254.327 134.454 254.867 132.928 254.867 131.405C254.867 129.236 253.855 127.065 252.249 125.889C250.407 124.542 248.025 124.486 246.065 124.486H229.895V146.245H237.802V138.325H242.021L246.539 146.245H255.282L249.751 137.565H249.75ZM216.874 141.617C215.923 142.084 214.794 142.199 213.724 142.199C208.906 142.199 207.064 138.737 207.064 135.333C207.064 132.345 208.725 128.475 213.724 128.532C219.073 128.589 220.141 132.992 220.141 135.332C220.141 137.565 219.31 140.382 216.874 141.617ZM221.452 124.954C218.893 123.957 215.982 123.663 213.245 123.722C209.324 123.781 204.09 124.487 200.999 128.764C199.572 130.761 198.916 133.166 198.916 135.627C198.916 138.094 199.572 140.201 201.058 142.199C202.665 144.37 205.815 147.068 213.483 147.068C217.527 147.068 221.035 146.48 224.066 144.134C225.14 143.312 226.031 142.377 226.685 141.203C227.752 139.441 228.289 137.328 228.289 135.274C228.289 131.579 226.505 127.007 221.452 124.954ZM177.037 146.245H184.947V138.443H197.548V133.576H184.947V129.411H198.68V124.486H177.037V146.245Z" fill="#13191E"></path><path fill-rule="evenodd" clip-rule="evenodd" d="M325.042 137.96H339.166V133.055H325.103V129.495H340.348V124.651H317.246V146.309H340.642V141.407H325.042V137.96V137.96ZM298.753 138.777L293.195 124.651H282.803V146.309H290.534V132.472L295.622 146.309H301.706L306.903 132.41V146.309H314.644V124.651H304.303L298.753 138.777V138.777ZM418.516 137.962L421.056 130.664L423.653 137.962H418.516ZM425.487 124.65H416.564L407.111 146.309H415.735L416.919 142.75H425.255L426.431 146.309H435L425.488 124.651L425.487 124.65ZM356.887 133.524H350.981V129.553H357.482C358.074 129.553 358.901 129.614 359.491 130.137C359.906 130.545 360.078 131.069 360.078 131.538C360.078 133.465 358.074 133.523 356.887 133.523V133.524ZM366.521 135.622C367.402 134.574 367.935 133.055 367.935 131.538C367.935 129.321 366.932 127.218 365.339 126.05C363.506 124.707 361.144 124.651 359.252 124.651H343.122V146.309H350.981V138.426H355.177L359.663 146.308H368.351L362.858 137.667C363.804 137.434 365.281 137.083 366.521 135.622V135.622ZM265.782 137.962L268.324 130.664L270.92 137.962H265.782ZM263.832 124.649L254.381 146.308H263.002L264.187 142.749H272.522L273.699 146.308H282.267L272.753 124.651H263.83L263.832 124.649ZM370.422 146.308H378.275V124.651H370.422V146.309V146.308ZM400.787 138.544C400.552 139.186 400.258 139.887 399.196 140.704C398.069 141.638 396.475 142.165 394.763 142.165C390.274 142.165 388.324 138.777 388.324 135.448C388.324 130.897 391.511 128.679 395.055 128.679C396.118 128.679 397.599 128.91 398.781 129.671C399.96 130.428 400.315 131.245 400.606 131.831L407.877 130.546C407.171 128.502 405.516 123.715 394.821 123.715C382.355 123.715 380.112 131.305 380.112 135.509C380.112 141.465 383.834 144.851 388.381 146.25C390.387 146.836 392.46 147.068 394.642 147.068C399.432 147.068 404.455 145.961 407.05 141.989C407.761 140.88 408.06 140.117 408.291 139.307L400.789 138.544H400.787ZM45 129.495H52.8V146.309H60.7203V129.495H68.4572V124.593H45V129.497V129.495ZM78.387 137.963H92.5041V133.055H78.387V129.495H93.6262V124.651H70.5298V146.31H93.9824V141.408H78.387V137.963V137.963ZM166.538 132.591H156.965V124.651H149.051V146.311H156.965V138.019H166.538V146.311H174.454V124.651H166.538V132.591V132.591ZM105.386 138.019L107.928 130.662L110.466 138.019H105.386ZM103.377 124.651L93.9812 146.309H102.548L103.73 142.805H112.119L113.303 146.308H121.87L112.359 124.652H103.376L103.377 124.651ZM138.653 140.703C137.528 141.638 135.933 142.165 134.217 142.165C129.73 142.165 127.779 138.774 127.779 135.448C127.779 130.897 130.969 128.677 134.456 128.677C135.577 128.677 137.054 128.911 138.237 129.67C139.416 130.427 139.771 131.245 140.068 131.83L147.336 130.546C146.63 128.502 144.972 123.715 134.276 123.715C121.812 123.715 119.567 131.307 119.567 135.509C119.567 141.465 123.288 144.851 127.78 146.25C129.847 146.892 131.914 147.068 134.102 147.068C138.887 147.068 143.912 145.96 146.509 141.991C147.219 140.94 147.513 140.119 147.75 139.304L140.245 138.545C140.009 139.186 139.715 139.886 138.654 140.703H138.653Z" fill="#13191E"></path></g><defs><clipPath id="clip0_2515_2084"><rect width="390" height="23.3533" fill="white" transform="translate(45 123.715)"></rect></clipPath></defs></svg> 