<?xml version="1.0" encoding="UTF-8"?> <svg xmlns="http://www.w3.org/2000/svg" width="144" height="87" viewBox="0 0 144 87" fill="none"><path d="M143 48C143 48.0119 142.976 48.2774 142.288 48.7111C141.65 49.1132 140.661 49.5124 139.349 49.8622C136.74 50.5578 133.081 51 129 51C124.919 51 121.26 50.5578 118.651 49.8622C117.339 49.5124 116.35 49.1132 115.712 48.7111C115.024 48.2774 115 48.0119 115 48C115 47.9881 115.024 47.7226 115.712 47.2889C116.35 46.8868 117.339 46.4876 118.651 46.1378C121.26 45.4422 124.919 45 129 45C133.081 45 136.74 45.4422 139.349 46.1378C140.661 46.4876 141.65 46.8868 142.288 47.2889C142.976 47.7226 143 47.9881 143 48Z" stroke="black" stroke-width="2"></path><path d="M143 22C143 22.0119 142.976 22.2774 142.288 22.7111C141.65 23.1132 140.661 23.5124 139.349 23.8622C136.74 24.5578 133.081 25 129 25C124.919 25 121.26 24.5578 118.651 23.8622C117.339 23.5124 116.35 23.1132 115.712 22.7111C115.024 22.2774 115 22.0119 115 22C115 21.9881 115.024 21.7226 115.712 21.2889C116.35 20.8868 117.339 20.4876 118.651 20.1378C121.26 19.4422 124.919 19 129 19C133.081 19 136.74 19.4422 139.349 20.1378C140.661 20.4876 141.65 20.8868 142.288 21.2889C142.976 21.7226 143 21.9881 143 22Z" stroke="black" stroke-width="2"></path><path d="M143 35C143 35.0119 142.976 35.2774 142.288 35.7111C141.65 36.1132 140.661 36.5124 139.349 36.8622C136.74 37.5578 133.081 38 129 38C124.919 38 121.26 37.5578 118.651 36.8622C117.339 36.5124 116.35 36.1132 115.712 35.7111C115.024 35.2774 115 35.0119 115 35C115 34.9881 115.024 34.7226 115.712 34.2889C116.35 33.8868 117.339 33.4876 118.651 33.1378C121.26 32.4422 124.919 32 129 32C133.081 32 136.74 32.4422 139.349 33.1378C140.661 33.4876 141.65 33.8868 142.288 34.2889C142.976 34.7226 143 34.9881 143 35Z" stroke="black" stroke-width="2"></path><line x1="115" y1="22" x2="115" y2="48" stroke="black" stroke-width="2"></line><line x1="143" y1="22" x2="143" y2="48" stroke="black" stroke-width="2"></line><path d="M49 65.6429V70C49 78.8366 56.1634 86 65 86H113C121.837 86 129 78.8366 129 70V51" stroke="black" stroke-width="2"></path><path d="M0 0H98V64C98 67.3137 95.3137 70 92 70H6C2.68629 70 0 67.3137 0 64V0Z" fill="#DCB480"></path><circle cx="8" cy="8" r="2" fill="#13191E"></circle><circle cx="14" cy="8" r="2" fill="#13191E"></circle><circle cx="20" cy="8" r="2" fill="#13191E"></circle><line x1="38.9474" y1="39.579" x2="38.9474" y2="25" stroke="black" stroke-width="2" stroke-linecap="round"></line><line x1="45.579" y1="39.579" x2="45.579" y2="29.4211" stroke="black" stroke-width="2" stroke-linecap="round"></line><line x1="52.2106" y1="39.579" x2="52.2106" y2="25" stroke="black" stroke-width="2" stroke-linecap="round"></line><line x1="58.8422" y1="39.579" x2="58.8422" y2="27.2106" stroke="black" stroke-width="2" stroke-linecap="round"></line><line x1="31" y1="44.0001" x2="67.6842" y2="44.0001" stroke="black" stroke-width="2" stroke-linecap="round"></line></svg> 