<?xml version="1.0" encoding="UTF-8"?> <svg xmlns="http://www.w3.org/2000/svg" width="480" height="271" viewBox="0 0 480 271" fill="none"><g clip-path="url(#clip0_2512_487)"><path d="M432.92 146.688C431.785 146.688 430.839 147.64 430.839 148.925C430.839 150.209 431.785 151.161 432.92 151.161C434.054 151.161 435 150.209 435 148.925C435 147.64 434.054 146.688 432.92 146.688ZM357.652 151.018H367.202V150.162L366.163 149.924C365.217 149.685 364.791 149.162 364.791 147.83V134.89H367.014C368.385 134.89 369.094 135.223 369.188 138.125L369.425 144.215C369.614 149.685 371.174 151.208 373.822 151.208C376.517 151.208 377.226 149.353 377.226 146.736V145.641H376.232V146.45C376.232 148.211 375.997 149.448 375.334 149.448C374.72 149.448 374.672 148.972 374.531 146.784L374.247 142.597C373.869 136.983 373.16 135.032 369.046 134.271C372.971 133.225 375.382 130.322 375.382 126.183C375.382 120.807 371.174 118.238 367.155 118.238H351.034V119.094L351.932 119.284C353.634 119.665 353.681 120.569 353.681 124.423V143.358C353.681 147.593 352.499 149.638 349.803 149.638C347.394 149.638 346.069 148.449 346.069 143.834V121.33C346.069 119.998 346.494 119.618 347.534 119.38L348.811 119.094V118.238H338.931V119.094L339.97 119.38C340.916 119.665 341.246 120.046 341.246 121.378V143.501C341.246 148.496 344.131 151.256 348.528 151.256C352.924 151.256 355.099 148.496 355.099 143.358V122.71C355.099 120.141 355.62 119.237 357.699 119.237C359.354 119.237 360.064 119.808 360.064 121.378V147.83C360.064 149.162 359.639 149.638 358.693 149.876L357.652 150.162V151.018V151.018ZM421.1 121.378C421.1 120.046 421.526 119.618 422.471 119.427L423.748 119.141V118.238H413.914V119.094L414.954 119.38C415.9 119.665 416.325 120.046 416.325 121.378V148.021C416.325 149.305 415.806 150.019 414.339 150.019C412.637 150.019 412.4 149.448 411.786 146.641L405.735 118.143H403.843L398.076 145.737C397.413 148.829 397.083 149.543 395.806 149.924L395.002 150.162V151.018H401.763V150.162L400.77 149.971C399.352 149.685 398.974 148.925 399.683 145.309L403.087 127.658L406.822 146.355C407.389 149.067 407.343 149.591 405.309 149.971L404.316 150.162V151.018H429.374V140.171H428.475C428.003 145.166 427.01 149.876 422.992 149.876H421.1V121.378V121.378ZM406.349 142.169V140.884H399.966L399.778 142.169H406.349ZM379.968 121.949V144.69C379.968 148.116 379.968 149.733 378.266 150.019L377.415 150.162V151.018H384.364V150.162C381.339 149.733 381.339 148.687 381.339 144.976V123.376L380.204 122.329L391.788 151.018H393.773V124.566C393.773 120.664 393.773 119.808 395.665 119.284L396.326 119.094V118.238H389.187V119.094L389.991 119.284C392.402 119.712 392.402 120.664 392.402 124.28V140.836L392.875 140.694L384.081 118.238H377.32V119.094L377.982 119.284C378.739 119.522 379.164 120.379 379.968 121.949V121.949ZM364.791 119.38H366.683C368.574 119.38 370.323 120.616 370.323 126.802C370.323 133.129 369 133.748 366.352 133.748H364.791V119.38ZM333.304 134.319C333.304 148.068 332.17 150.019 329.711 150.019C327.253 150.019 326.165 148.068 326.165 134.413C326.165 121.187 327.347 119.284 329.711 119.284C332.17 119.284 333.304 121.187 333.304 134.319ZM338.458 134.604C338.458 125.517 335.574 118 329.711 118C323.801 118 321.011 125.517 321.011 134.604C321.011 143.739 323.896 151.256 329.711 151.256C335.716 151.256 338.458 143.739 338.458 134.604ZM318.223 121.378C318.223 120.046 318.554 119.618 319.498 119.38L320.539 119.094V118.238H310.752V119.094L311.934 119.38C312.879 119.618 313.4 119.951 313.4 121.33V144.215C313.4 147.402 313.116 149.971 310.752 149.971C309.239 149.971 308.105 148.782 308.152 147.926C308.293 146.45 310.752 146.546 310.941 144.167C311.083 142.454 309.995 141.74 309.003 141.598C307.537 141.407 305.741 142.644 305.693 145.118C305.645 148.306 307.726 151.208 311.272 151.208C315.197 151.208 318.223 148.544 318.223 143.453V121.378V121.378ZM160.312 121.378C160.312 120.046 160.738 119.618 161.683 119.427L162.96 119.141V118.238H153.126V119.094L154.166 119.38C155.111 119.665 155.537 120.046 155.537 121.378V148.021C155.537 149.305 155.017 150.019 153.551 150.019C151.849 150.019 151.565 149.448 150.951 146.641L144.899 118.143H143.008L137.24 145.737C136.579 148.829 136.247 149.543 134.971 149.924L134.167 150.162V151.018H140.928V150.162L139.935 149.971C138.517 149.685 138.138 148.925 138.848 145.309L142.252 127.562L145.987 146.355C146.507 149.067 146.507 149.591 144.474 149.971L143.481 150.162V151.018H168.586V140.171H167.688C167.215 145.166 166.222 149.876 162.203 149.876H160.312V121.378V121.378ZM291.935 119.38H292.975C295.907 119.38 296.9 124.089 297.231 129.085H298.128V118.238H280.967V129.085H281.865C282.196 124.089 283.189 119.38 286.12 119.38H287.16V147.83C287.16 149.162 286.735 149.638 285.789 149.876L284.56 150.162V151.018H294.773V150.162L293.306 149.829C292.408 149.591 291.935 149.305 291.935 147.83V119.38V119.38ZM270.329 134.556L271.794 134.604C273.922 134.652 274.536 135.461 274.963 140.647H275.861V127.42H274.963C274.442 131.56 273.875 133.319 271.842 133.367L270.329 133.415V119.38H273.591C277.232 119.38 278.036 123.995 278.555 129.085H279.454V118.238H263.143V119.094L264.183 119.38C265.27 119.665 265.554 120.332 265.554 121.426V147.83C265.554 149.162 265.129 149.638 264.183 149.876L263.143 150.162V151.018H279.926V140.171H279.028C278.461 145.118 277.846 149.876 273.591 149.876H270.329V134.556V134.556ZM252.505 134.556L253.971 134.604C256.098 134.652 256.713 135.461 257.138 140.647H258.037V127.42H257.138C256.619 131.56 256.051 133.319 254.019 133.367L252.505 133.415V119.38H255.767C259.408 119.38 260.212 124.089 260.731 129.085H261.63V118.238H244.846V119.094L246.359 119.38C247.446 119.665 247.73 120.332 247.73 121.426V147.83C247.73 149.162 247.304 149.638 246.359 149.876L245.319 150.162V151.018H262.102V140.171H261.205C260.637 145.118 260.022 149.876 255.767 149.876H252.505V134.556V134.556ZM233.073 119.38H234.492C236.383 119.38 238.132 120.616 238.132 126.802C238.132 133.034 236.809 133.748 234.161 133.748H233.073V119.38ZM225.934 151.018H235.485V150.162L234.444 149.924C233.499 149.685 233.073 149.162 233.073 147.83V134.89H234.823C236.194 134.89 236.903 135.461 236.998 138.125L237.234 144.215C237.424 149.685 238.983 151.208 241.631 151.208C244.326 151.208 245.035 149.353 245.035 146.736V145.641H244.042V146.45C244.042 148.211 243.806 149.448 243.144 149.448C242.529 149.448 242.482 148.972 242.34 146.784L242.056 142.597C241.678 136.84 240.922 135.032 236.856 134.271C240.78 133.225 243.191 130.322 243.191 126.183C243.191 120.807 238.983 118.238 234.965 118.238H225.934V119.094L226.975 119.38C227.92 119.665 228.345 120.046 228.345 121.378V147.83C228.345 149.162 227.92 149.638 226.975 149.876L225.934 150.162V151.018V151.018ZM218.701 119.38H219.741C222.672 119.38 223.665 124.089 223.997 129.085H224.894V118.238H207.732V129.085H208.631C208.961 124.089 209.955 119.38 212.886 119.38H213.926V147.83C213.926 149.162 213.5 149.638 212.555 149.876L211.325 150.162V151.018H221.301V150.162L220.072 149.876C218.843 149.591 218.701 148.639 218.701 147.83V119.38V119.38ZM207.779 142.501C207.779 132.748 197.142 130.179 197.142 123.091C197.142 121.568 197.71 119.284 200.073 119.284C203.477 119.284 204.754 123.709 205.321 129.085H206.22V118.238H205.652C205.416 119.284 204.99 119.76 204.376 119.76C203.288 119.76 202.721 118.047 200.121 118.047C196.102 118.047 193.36 121.426 193.36 125.85C193.36 133.89 203.997 137.268 203.997 144.69C203.997 148.068 202.437 149.971 200.31 149.971C197.142 149.971 195.062 146.213 194.494 140.171H193.596V151.018H194.164C194.636 149.448 195.251 149.305 195.771 149.305C196.669 149.305 197.615 151.208 200.357 151.208C204.565 151.208 207.779 147.545 207.779 142.501V142.501ZM176.812 121.378C176.812 120.046 177.238 119.618 178.183 119.427L179.46 119.141V118.238H169.626V119.094L170.666 119.38C171.612 119.665 172.037 120.046 172.037 121.378V147.83C172.037 149.162 171.612 149.638 170.666 149.876L169.626 150.162V151.018H185.086V140.171H184.187C183.715 145.166 182.722 149.876 178.704 149.876H176.812V121.378V121.378ZM145.514 142.169V140.884H139.131L138.942 142.169H145.514ZM118.187 151.113H120.125L124.522 127.706H123.86L128.683 151.113H130.385L136.153 123.519C136.768 120.616 137.098 119.618 138.233 119.332L139.131 119.094V118.238H132.465V119.094L133.458 119.284C134.876 119.57 135.207 120.426 134.545 123.947L130.81 142.454H131.378L127.595 122.948C127.217 121.092 126.981 119.57 128.541 119.284L129.581 119.094V118.238H120.456V119.094L121.071 119.237C122.017 119.474 122.159 120.046 122.536 121.854L124.002 128.942L123.718 124.66L120.456 141.978H120.882L117.052 122.948C116.627 120.997 116.485 119.522 117.997 119.237L118.707 119.094V118.238H109.393V119.094L110.292 119.332C111.142 119.57 111.615 119.998 112.183 122.614L118.187 151.113V151.113ZM92.9402 134.556L94.4059 134.604C96.5332 134.652 97.1478 135.461 97.5734 140.647H98.4716V127.42H97.5734C97.0536 131.56 96.4862 133.319 94.453 133.367L92.9402 133.415V119.38H96.2024C99.8426 119.38 100.647 124.089 101.166 129.085H102.065V118.238H85.754V119.094L86.7942 119.38C87.8814 119.665 88.1651 120.332 88.1651 121.426V147.83C88.1651 149.162 87.7395 149.638 86.7942 149.876L85.754 150.162V151.018H102.538V140.171H101.639C101.072 145.118 100.458 149.876 96.2024 149.876H92.9402V134.556V134.556ZM63.202 151.018H72.894V150.162L71.8067 149.924C70.9556 149.733 70.3881 149.162 70.3881 147.83V134.842H77.5272V147.83C77.5272 149.162 76.9603 149.733 76.1091 149.924L75.0219 150.162V151.018H84.7139V150.162L83.6738 149.876C82.7284 149.638 82.3022 149.114 82.3022 147.783V121.378C82.3022 120.046 82.7284 119.618 83.6738 119.38L84.7139 119.094V118.238H75.0219V119.094L76.1091 119.38C76.9126 119.618 77.5272 119.951 77.5272 121.33V133.558H70.3881V121.33C70.3881 119.998 70.9085 119.618 71.8067 119.38L72.894 119.094V118.238H63.202V119.094L64.2421 119.38C65.1881 119.665 65.6131 120.046 65.6131 121.378V147.83C65.6131 149.162 65.1881 149.638 64.2421 149.876L63.202 150.162V151.018ZM55.9682 119.38H57.0089C59.9397 119.38 60.9328 124.089 61.2636 129.085H62.1618V118.238H45V129.085H45.8983C46.2291 124.089 47.2221 119.38 50.153 119.38H51.1931V147.83C51.1931 149.162 50.7681 149.638 49.8221 149.876L48.5931 150.162V151.018H58.8054V150.162L57.3397 149.829C56.4414 149.591 55.9682 149.305 55.9682 147.83V119.38V119.38Z" fill="#13191E"></path></g><defs><clipPath id="clip0_2512_487"><rect width="390" height="33.2558" fill="white" transform="translate(45 118)"></rect></clipPath></defs></svg> 