<?xml version="1.0" encoding="UTF-8"?> <svg xmlns="http://www.w3.org/2000/svg" width="480" height="271" viewBox="0 0 480 271" fill="none"><g clip-path="url(#clip0_2515_2483)"><path d="M84.6821 132.447C86.3289 132.447 87.6638 131.112 87.6638 129.465C87.6638 127.818 86.3289 126.483 84.6821 126.483C83.0352 126.483 81.7002 127.818 81.7002 129.465C81.7002 131.112 83.0352 132.447 84.6821 132.447Z" fill="#13191E"></path><path d="M84.682 125.424C86.7537 125.424 88.4333 123.745 88.4333 121.673C88.4333 119.601 86.7537 117.922 84.682 117.922C82.6101 117.922 80.9307 119.601 80.9307 121.673C80.9307 123.745 82.6101 125.424 84.682 125.424Z" fill="#13191E"></path><path d="M94.1077 122.059C92.0877 122.059 90.3564 123.694 90.3564 125.81C90.3564 127.06 91.0298 128.118 91.9915 128.792C89.106 132.254 86.7975 136.487 85.4509 141.103V133.986H83.8158V141.103C82.4692 136.487 80.2568 132.158 77.2751 128.792C78.2368 128.118 78.9102 126.964 78.9102 125.81C78.9102 123.79 77.2751 122.059 75.159 122.059C73.0429 122.059 71.5039 123.694 71.5039 125.81C71.5039 127.926 73.1391 129.561 75.2551 129.561C75.3513 129.561 75.5437 129.561 75.8323 129.561C80.9301 135.332 84.1042 143.797 83.912 152.453H85.5471C85.4509 143.797 88.5289 135.332 93.6268 129.561C93.723 129.561 93.9152 129.561 94.2039 129.561C96.2238 129.561 97.9551 127.926 97.9551 125.81C97.6666 123.694 96.0314 122.059 94.1077 122.059Z" fill="#13191E"></path><path d="M84.6818 111.092C97.9554 111.092 108.728 121.961 108.728 135.139C108.728 148.316 97.8591 159.185 84.6818 159.185C71.5042 159.185 60.6352 148.316 60.6352 135.139C60.6352 121.961 71.3119 111.092 84.6818 111.092ZM84.6818 109.457C70.5423 109.457 59 120.999 59 135.139C59 149.278 70.5423 160.82 84.6818 160.82C98.8211 160.82 110.363 149.278 110.363 135.139C110.363 120.999 98.8211 109.457 84.6818 109.457Z" fill="#13191E"></path><path d="M119.502 122.057H124.311L130.467 141.006L136.815 121.961H140.663L146.819 141.006L152.975 122.057H157.592L148.646 147.835H144.702L138.547 129.464L132.198 147.835H128.351L119.502 122.057Z" fill="#13191E"></path><path d="M161.343 122.059H180.291V126.002H165.863V132.735H178.752V136.679H165.863V143.508H180.58V147.452H161.343V122.059Z" fill="#13191E"></path><path d="M185.484 122.059H195.103C203.183 122.059 208.665 127.541 208.665 134.851V134.948C208.665 142.065 203.086 147.74 195.103 147.74H185.484V122.059ZM190.005 126.195V143.604H195.103C200.49 143.604 204.048 140.045 204.048 134.948V134.851C204.048 129.754 200.49 126.195 195.103 126.195H190.005Z" fill="#13191E"></path><path d="M213.475 122.059H223.093C231.174 122.059 236.655 127.541 236.655 134.851V134.948C236.655 142.065 231.078 147.74 223.093 147.74H213.475V122.059ZM217.995 126.195V143.604H223.093C228.48 143.604 232.038 140.045 232.038 134.948V134.851C232.038 129.754 228.48 126.195 223.093 126.195H217.995Z" fill="#13191E"></path><path d="M241.562 122.059H246.084V147.74H241.562V122.059Z" fill="#13191E"></path><path d="M252.43 122.059H256.566L270.32 139.757V122.059H274.746V147.74H270.995L256.854 129.465V147.74H252.43V122.059Z" fill="#13191E"></path><path d="M279.554 134.947C279.554 127.637 285.037 121.674 292.732 121.674C297.253 121.674 299.849 122.924 302.64 125.137L299.753 128.599C297.831 126.964 295.811 125.81 292.636 125.81C288.019 125.81 284.364 129.946 284.364 134.851V134.947C284.364 140.142 287.827 144.181 293.02 144.181C295.522 144.181 297.637 143.316 299.177 142.258V137.448H292.636V133.505H303.506V144.181C301.004 146.394 297.349 148.125 292.828 148.125C284.941 148.029 279.554 142.354 279.554 134.947Z" fill="#13191E"></path><path d="M306.103 122.057H309.277L316.586 143.314L323.511 121.961H325.819L332.842 143.314L340.248 122.057H343.23L334.189 147.835H331.689L324.666 127.155L317.548 147.835H315.048L306.103 122.057Z" fill="#13191E"></path><path d="M347.655 122.059H350.539V147.74H347.655V122.059Z" fill="#13191E"></path><path d="M357.369 122.059H368.335C371.509 122.059 373.914 123.02 375.645 124.656C376.896 125.906 377.568 127.637 377.568 129.754V129.85C377.568 134.082 374.683 136.583 370.547 137.256L378.338 147.644H374.78L367.373 137.737H360.063V147.644H357.177V122.059H357.369ZM368.238 135.14C372.085 135.14 374.78 133.216 374.78 129.946V129.85C374.78 126.676 372.279 124.752 368.238 124.752H360.255V135.14H368.238Z" fill="#13191E"></path><path d="M383.339 122.059H401.904V124.656H386.225V133.505H400.172V136.102H386.225V145.047H402V147.644H383.339V122.059Z" fill="#13191E"></path></g><defs><clipPath id="clip0_2515_2483"><rect width="343" height="51.6344" fill="white" transform="translate(59 109.457)"></rect></clipPath></defs></svg> 