<?xml version="1.0" encoding="UTF-8"?> <svg xmlns="http://www.w3.org/2000/svg" width="532" height="110" viewBox="0 0 532 110" fill="none"><g clip-path="url(#clip0_228_2351)"><path d="M0 0.000488281H106.466C106.466 36.2587 106.466 72.5302 106.466 108.789H0V0.000488281ZM7.8407 17.0749C12.5902 39.1908 16.8489 61.426 21.4259 83.5814C22.2618 86.235 21.7443 89.7374 24.3181 91.5151C28.9615 92.2581 33.7243 92.0724 38.4075 91.754C40.9547 91.8335 41.5649 88.8352 42.0293 86.9115C45.2267 71.1371 48.7025 55.416 51.8865 39.6417C52.1387 38.1824 52.5898 36.7628 53.2795 35.4495C57.2464 52.378 60.5232 69.4523 64.2116 86.434C64.7157 88.2383 64.8218 90.4671 66.5995 91.5681C71.6673 92.1785 76.8682 92.2315 81.9227 91.5284C83.7403 90.4538 83.8331 88.2383 84.2975 86.4074C88.9807 63.3098 93.3455 40.1194 98.2939 17.0749C93.823 17.1014 89.3654 17.0882 84.9077 17.0882C81.3521 37.1873 78.4998 57.4192 74.5728 77.4522C70.1551 60.4575 67.1964 43.0513 63.3492 25.8973C62.4736 22.9654 62.8715 18.6935 59.6609 17.2076C55.7339 16.9688 51.7804 16.9555 47.8534 17.2076C45.6246 17.3933 45.1205 20.0334 44.6827 21.7846C41.1271 38.7926 37.3991 55.761 33.9232 72.769C33.5652 74.3477 33.0345 75.8602 32.4374 77.3594C28.8687 57.3131 25.4856 37.2139 22.4077 17.0882C17.552 17.0749 12.6964 17.1014 7.8407 17.0749Z" fill="#231F20"></path><path d="M106.466 0.000488281H211.938C211.938 36.2587 211.938 72.5302 211.938 108.789H106.466C106.466 72.5302 106.466 36.2587 106.466 0.000488281ZM133.478 16.3585C133.425 20.8162 133.425 25.2605 133.478 29.7183C139.54 29.7579 145.604 29.7316 151.667 29.7316C151.64 46.169 151.64 62.6198 151.667 79.0575C145.604 79.0575 139.54 79.0309 133.478 79.0708C133.425 83.5285 133.425 87.9728 133.491 92.4304C150.632 92.4703 167.772 92.4703 184.913 92.4304C184.979 87.9861 184.966 83.5285 184.94 79.0841C178.864 79.0309 172.801 79.0575 166.738 79.0575C166.764 62.6198 166.764 46.169 166.738 29.7316C172.801 29.7316 178.864 29.7579 184.926 29.7183C184.979 25.2605 184.979 20.8029 184.913 16.3585C167.772 16.3187 150.632 16.3187 133.478 16.3585Z" fill="white"></path><path d="M211.938 0.000488281H318.405C318.405 36.2587 318.405 72.5302 318.405 108.789H211.938C211.938 72.5302 211.938 36.2587 211.938 0.000488281ZM235.99 17.0882C235.99 41.9636 235.99 66.8255 235.99 91.7008C240.899 91.7008 245.821 91.7008 250.743 91.7008C250.743 81.9764 250.743 72.2384 250.743 62.5137C258.743 62.5403 266.742 62.474 274.743 62.527C277.661 62.2485 281.138 64.3313 281.071 67.5419C281.441 75.6081 282.133 83.6479 282.636 91.7008C287.32 91.7008 291.991 91.7008 296.672 91.7141C295.345 82.5866 296.978 73.1537 294.403 64.2121C293.079 59.5289 287.902 58.4806 283.87 57.3131C286.868 55.7211 290.717 55.5753 292.892 52.6565C296.05 48.65 296.276 43.3034 296.289 38.4213C296.236 32.7166 296.366 26.4413 292.746 21.652C289.855 17.6719 284.442 17.0882 279.904 17.0882C265.27 17.0749 250.624 17.0882 235.99 17.0882Z" fill="#231F20"></path><path d="M318.405 0.000488281H424.207C424.207 36.2587 424.207 72.5302 424.207 108.789H318.405C318.405 72.5302 318.405 36.2587 318.405 0.000488281ZM337.429 16.3718C337.376 20.8029 337.376 25.2473 337.403 29.6784C340.786 29.7446 344.17 29.7446 347.551 29.7183C347.617 46.169 347.617 62.6198 347.551 79.0708C344.17 79.0442 340.8 79.0442 337.416 79.0841C337.376 83.5285 337.363 87.9728 337.429 92.4171C358.763 92.4836 380.082 92.4836 401.416 92.4171C401.522 83.6213 401.456 74.8255 401.456 66.0294C396.825 65.9898 392.193 65.9898 387.565 66.0427C387.552 70.3812 387.552 74.7194 387.565 79.0575C379.128 79.0708 370.69 79.0043 362.252 79.0974C362.119 72.5834 362.213 66.056 362.186 59.5419C368.817 59.5419 375.451 59.5419 382.085 59.5419C382.085 55.3099 382.085 51.0778 382.085 46.8457C375.451 46.8457 368.817 46.8457 362.186 46.8457C362.186 41.1408 362.173 35.4362 362.199 29.7316C370.424 29.7446 378.635 29.7446 386.86 29.7316C386.834 33.5258 386.834 37.32 386.847 41.1275C391.398 41.1275 395.949 41.1275 400.501 41.1275C400.487 32.8757 400.514 24.6237 400.487 16.3718C379.457 16.3054 358.443 16.3054 337.429 16.3718Z" fill="white"></path><path d="M424.206 0.000488281H532V108.789H424.206C424.206 72.5302 424.206 36.2587 424.206 0.000488281ZM448.261 17.0882C448.261 41.9636 448.261 66.8255 448.261 91.7008C460.664 91.6742 473.055 91.754 485.461 91.6609C493.103 91.5151 502.003 90.0955 506.608 83.25C511.981 74.6529 511.172 64.1323 512.114 54.4342C511.159 44.7231 512.008 34.1626 506.608 25.5391C502.323 19.1313 494.124 17.4464 486.918 17.181C474.036 16.9688 461.143 17.1412 448.261 17.0882Z" fill="#231F20"></path><path d="M133.477 16.3565C150.632 16.3167 167.772 16.3167 184.913 16.3565C184.979 20.8009 184.979 25.2586 184.926 29.7161C178.863 29.756 172.8 29.7294 166.738 29.7294C166.764 46.1671 166.764 62.6179 166.738 79.0556C172.8 79.0556 178.863 79.029 184.939 79.0822C184.966 83.5265 184.979 87.9842 184.913 92.4285C167.772 92.4684 150.632 92.4684 133.491 92.4285C133.425 87.9709 133.425 83.5266 133.477 79.0689C139.54 79.029 145.603 79.0556 151.666 79.0556C151.64 62.6179 151.64 46.1671 151.666 29.7294C145.603 29.7294 139.54 29.756 133.477 29.7161C133.425 25.2586 133.425 20.8142 133.477 16.3565Z" fill="#231F20"></path><path d="M337.429 16.371C358.443 16.3047 379.457 16.3047 400.487 16.371C400.513 24.623 400.487 32.8749 400.5 41.127C395.949 41.127 391.398 41.127 386.846 41.127C386.833 37.3195 386.833 33.525 386.86 29.7308C378.635 29.7441 370.424 29.7441 362.199 29.7308C362.172 35.4354 362.186 41.1403 362.186 46.8449C368.817 46.8449 375.451 46.8449 382.085 46.8449C382.085 51.077 382.085 55.3091 382.085 59.5414C375.451 59.5414 368.817 59.5414 362.186 59.5414C362.212 66.0552 362.119 72.5826 362.252 79.0966C370.69 79.0038 379.127 79.07 387.565 79.0567C387.551 74.7185 387.551 70.3804 387.565 66.0422C392.193 65.989 396.824 65.989 401.455 66.0289C401.455 74.8247 401.522 83.6205 401.415 92.4166C380.082 92.4828 358.762 92.4828 337.429 92.4166C337.362 87.972 337.376 83.5277 337.416 79.0833C340.799 79.0434 344.169 79.0434 347.55 79.07C347.617 62.6193 347.617 46.1682 347.55 29.7175C344.169 29.7441 340.786 29.7441 337.402 29.6776C337.376 25.2465 337.376 20.8022 337.429 16.371Z" fill="#231F20"></path><path d="M7.84106 17.0744C12.6967 17.1009 17.5524 17.0744 22.4081 17.0877C25.486 37.2134 28.869 57.3126 32.4377 77.3589C33.0348 75.8597 33.5655 74.3472 33.9235 72.7685C37.3996 55.7605 41.1276 38.7921 44.683 21.7841C45.1208 20.0329 45.6251 17.3928 47.854 17.2071C51.7809 16.955 55.7345 16.9682 59.6614 17.2071C62.8718 18.6929 62.4738 22.9649 63.3495 25.8968C67.1969 43.0507 70.1554 60.457 74.5731 77.4517C78.5003 57.4187 81.3527 37.1868 84.908 17.0877C89.3657 17.0877 93.8235 17.1009 98.2942 17.0744C93.3458 40.1189 88.981 63.3093 84.2978 86.4069C83.8334 88.2378 83.7405 90.4533 81.923 91.5279C76.8684 92.231 71.6679 92.178 66.5998 91.5675C64.8221 90.4666 64.716 88.2378 64.2119 86.4335C60.5238 69.4518 57.2467 52.3775 53.2801 35.449C52.5901 36.7622 52.1389 38.1819 51.887 39.6412C48.703 55.4155 45.2269 71.1366 42.0296 86.911C41.5655 88.8347 40.955 91.833 38.4078 91.7535C33.7246 92.0719 28.9618 92.2576 24.3185 91.5146C21.7447 89.7369 22.2621 86.2345 21.4263 83.5809C16.8493 61.4255 12.5906 39.1903 7.84106 17.0744Z" fill="white"></path><path d="M235.99 17.0884C250.624 17.0884 265.27 17.0751 279.904 17.0884C284.442 17.0884 289.855 17.6722 292.746 21.6522C296.369 26.4415 296.236 32.7167 296.289 38.4214C296.276 43.3038 296.05 48.6501 292.892 52.6569C290.717 55.5755 286.868 55.7215 283.87 57.3135C287.902 58.481 293.079 59.529 294.403 64.2122C296.978 73.1541 295.345 82.5867 296.672 91.7145C291.991 91.7012 287.32 91.7012 282.635 91.7012C282.133 83.648 281.444 75.6085 281.071 67.5423C281.138 64.3316 277.661 62.2486 274.743 62.5274C266.742 62.4742 258.743 62.5407 250.743 62.5141C250.743 72.2388 250.743 81.9765 250.743 91.7012C245.821 91.7012 240.899 91.7012 235.99 91.7012C235.99 66.8257 235.99 41.9637 235.99 17.0884ZM250.743 29.3471C250.743 36.5509 250.743 43.7547 250.743 50.9588C259.566 50.8393 268.415 51.224 277.225 50.7728C281.96 50.4943 282.026 44.8027 282.213 41.2474C282.066 37.3337 282.795 32.1331 279.148 29.546C269.703 29.055 260.216 29.4928 250.743 29.3471Z" fill="white"></path><path d="M448.261 17.0885C461.143 17.1416 474.039 16.9691 486.919 17.1814C494.124 17.4467 502.323 19.1316 506.608 25.5395C512.008 34.1629 511.159 44.7233 512.114 54.4347C511.172 64.1328 511.981 74.6534 506.608 83.2502C502.003 90.096 493.103 91.5154 485.461 91.6614C473.055 91.7542 460.664 91.6747 448.261 91.7013C448.261 66.8258 448.261 41.9638 448.261 17.0885ZM463.013 29.3472C463.013 46.0501 463.013 62.7398 463.013 79.4427C470.562 79.4294 478.111 79.456 485.674 79.456C489.294 79.5222 493.686 78.567 495.385 74.9585C497.918 69.373 497.295 63.0848 497.508 57.128C497.229 49.672 498.29 41.8976 495.782 34.7334C494.654 31.0717 490.581 29.3339 487.012 29.3735C479.013 29.294 471.012 29.3868 463.013 29.3472Z" fill="white"></path><path d="M250.743 29.3484C260.215 29.4944 269.702 29.0566 279.148 29.5474C282.795 32.1345 282.066 37.335 282.212 41.2487C282.026 44.8043 281.96 50.4956 277.222 50.7744C268.415 51.2256 259.565 50.8407 250.743 50.9601C250.743 43.7563 250.743 36.5522 250.743 29.3484Z" fill="#231F20"></path><path d="M463.013 29.3454C471.011 29.385 479.013 29.2922 487.011 29.372C490.581 29.3321 494.653 31.0701 495.781 34.7316C498.29 41.8958 497.228 49.6701 497.505 57.1261C497.295 63.0829 497.917 69.3714 495.382 74.9566C493.685 78.5652 489.293 79.5204 485.673 79.4542C478.111 79.4542 470.562 79.4276 463.013 79.4409C463.013 62.7379 463.013 46.0483 463.013 29.3454Z" fill="#231F20"></path></g><defs><clipPath id="clip0_228_2351"><rect width="532" height="109.06" fill="white"></rect></clipPath></defs></svg> 